<svg width="55" height="77" viewBox="0 0 55 77" fill="none" xmlns="http://www.w3.org/2000/svg">
<path d="M53.1377 0.157715H13.4582L0.445312 11.013V75.4263C0.445877 75.8017 0.595269 76.1616 0.860743 76.4271C1.12622 76.6925 1.48611 76.8419 1.86155 76.8425H53.1377C53.5131 76.8419 53.873 76.6926 54.1385 76.4271C54.404 76.1616 54.5534 75.8017 54.5539 75.4263V1.57406C54.5533 1.19861 54.4039 0.838715 54.1385 0.573229C53.873 0.307743 53.5131 0.158324 53.1377 0.157715ZM50.2563 72.5451H4.74288V14.2733H16.3786C16.754 14.2727 17.1139 14.1233 17.3794 13.8579C17.6448 13.5924 17.7943 13.2326 17.7949 12.8571V4.45514H50.2563V72.5451Z" fill="#d8b572"/>
<path d="M23.2098 25.0042H42.9623C43.2622 25.0042 43.5498 24.8851 43.7618 24.673C43.9739 24.461 44.093 24.1734 44.093 23.8735C44.093 23.5736 43.9739 23.286 43.7618 23.074C43.5498 22.8619 43.2622 22.7428 42.9623 22.7428H23.2098C22.91 22.7428 22.6224 22.8619 22.4103 23.074C22.1983 23.286 22.0792 23.5736 22.0792 23.8735C22.0792 24.1734 22.1983 24.461 22.4103 24.673C22.6224 24.8851 22.91 25.0042 23.2098 25.0042ZM10.9082 19.6423V28.1047C10.9083 28.3473 11.0047 28.5799 11.1762 28.7515C11.3478 28.923 11.5804 29.0194 11.823 29.0195H20.2856C20.5282 29.0194 20.7608 28.923 20.9323 28.7515C21.1039 28.5799 21.2003 28.3473 21.2004 28.1047V19.6423C21.2003 19.3997 21.1038 19.1671 20.9323 18.9956C20.7608 18.824 20.5282 18.7276 20.2856 18.7275H11.823C11.5804 18.7276 11.3478 18.824 11.1762 18.9956C11.0047 19.1671 10.9083 19.3997 10.9082 19.6423ZM12.1729 22.5413C12.2689 22.4744 12.3845 22.4415 12.5013 22.4478C12.6181 22.4542 12.7295 22.4994 12.8177 22.5763L15.222 24.6409L19.2709 20.6619C19.365 20.5689 19.4906 20.5148 19.6228 20.5103C19.755 20.5058 19.884 20.5512 19.9842 20.6375C20.0845 20.7238 20.1485 20.8448 20.1636 20.9762C20.1787 21.1076 20.1437 21.2398 20.0657 21.3466L16.0918 26.8002L16.0618 26.835C15.9099 27.0437 15.6814 27.1835 15.4265 27.2239C15.1715 27.2642 14.911 27.2017 14.7022 27.0501C14.6133 26.9847 14.5357 26.9053 14.4722 26.815L12.0379 23.276C11.9586 23.1606 11.9282 23.0185 11.9535 22.8808C11.9788 22.743 12.0577 22.621 12.1729 22.5413ZM23.2098 38.0278H42.9623C43.2622 38.0278 43.5498 37.9087 43.7618 37.6966C43.9739 37.4846 44.093 37.197 44.093 36.8971C44.093 36.5972 43.9739 36.3097 43.7618 36.0976C43.5498 35.8856 43.2622 35.7664 42.9623 35.7664H23.2098C22.91 35.7664 22.6224 35.8856 22.4103 36.0976C22.1983 36.3097 22.0792 36.5972 22.0792 36.8971C22.0792 37.197 22.1983 37.4846 22.4103 37.6966C22.6224 37.9087 22.91 38.0278 23.2098 38.0278ZM11.823 42.0431H20.2856C20.5282 42.043 20.7608 41.9466 20.9323 41.7751C21.1038 41.6036 21.2002 41.3711 21.2004 41.1285V32.666C21.2003 32.4234 21.1039 32.1908 20.9324 32.0192C20.7608 31.8477 20.5282 31.7512 20.2856 31.7511H11.823C11.5804 31.7512 11.3477 31.8477 11.1762 32.0192C11.0047 32.1908 10.9083 32.4234 10.9082 32.666V41.1285C10.9083 41.3711 11.0048 41.6036 11.1763 41.7751C11.3478 41.9466 11.5804 42.043 11.823 42.0431ZM12.1729 35.5649C12.2689 35.498 12.3845 35.4651 12.5013 35.4715C12.6181 35.4778 12.7295 35.523 12.8177 35.5999L15.222 37.6645L19.2709 33.6857C19.365 33.5927 19.4906 33.5385 19.6228 33.534C19.755 33.5295 19.884 33.5749 19.9842 33.6612C20.0844 33.7475 20.1485 33.8684 20.1635 33.9998C20.1786 34.1312 20.1437 34.2635 20.0657 34.3703L16.0918 39.8238L16.0618 39.8588C15.9098 40.0674 15.6813 40.2072 15.4264 40.2475C15.1716 40.2878 14.9111 40.2254 14.7022 40.0739C14.6134 40.0084 14.5357 39.9291 14.4722 39.8388L12.0379 36.2998C11.9586 36.1844 11.9282 36.0422 11.9535 35.9045C11.9788 35.7667 12.0577 35.6446 12.1729 35.5649ZM23.2098 51.0516H42.9623C43.2622 51.0516 43.5498 50.9325 43.7618 50.7204C43.9739 50.5084 44.093 50.2208 44.093 49.9209C44.093 49.621 43.9739 49.3334 43.7618 49.1214C43.5498 48.9093 43.2622 48.7902 42.9623 48.7902H23.2098C22.91 48.7902 22.6224 48.9093 22.4103 49.1214C22.1983 49.3334 22.0792 49.621 22.0792 49.9209C22.0792 50.2208 22.1983 50.5084 22.4103 50.7204C22.6224 50.9325 22.91 51.0516 23.2098 51.0516Z" fill="#d8b572"/>
<path d="M20.2838 44.7739H11.8222C11.3163 44.7739 10.9062 45.184 10.9062 45.6898V54.1515C10.9062 54.6573 11.3163 55.0674 11.8222 55.0674H20.2838C20.7896 55.0674 21.1997 54.6573 21.1997 54.1515V45.6898C21.1997 45.184 20.7896 44.7739 20.2838 44.7739Z" fill="#d8b572"/>
<path d="M23.2092 64.0755H42.9616C43.2615 64.0755 43.5491 63.9563 43.7612 63.7443C43.9732 63.5322 44.0923 63.2447 44.0923 62.9448C44.0923 62.6449 43.9732 62.3573 43.7612 62.1453C43.5491 61.9332 43.2615 61.8141 42.9616 61.8141H23.2092C22.9093 61.8141 22.6217 61.9332 22.4097 62.1453C22.1976 62.3573 22.0785 62.6449 22.0785 62.9448C22.0785 63.2447 22.1976 63.5322 22.4097 63.7443C22.6217 63.9563 22.9093 64.0755 23.2092 64.0755ZM20.2839 57.7998H11.822C11.5796 57.7995 11.347 57.8955 11.1753 58.0666C11.0035 58.2378 10.9068 58.4701 10.9062 58.7125V67.1775C10.9068 67.4199 11.0035 67.6522 11.1752 67.8234C11.347 67.9945 11.5796 68.0905 11.822 68.0903H20.2839C20.5264 68.0906 20.759 67.9946 20.9307 67.8234C21.1025 67.6522 21.1992 67.4199 21.1997 67.1775V58.7125C21.1992 58.4701 21.1025 58.2378 20.9307 58.0666C20.759 57.8955 20.5264 57.7995 20.2839 57.7998Z" fill="#d8b572"/>
</svg>
