<svg width="89" height="79" viewBox="0 0 89 79" fill="none" xmlns="http://www.w3.org/2000/svg">
<path fill-rule="evenodd" clip-rule="evenodd" d="M81.174 0C80.4477 0 20.3961 0 20.3961 0C16.2009 0 12.7988 3.04746 12.7988 6.8054C12.7988 11.9666 12.7988 19.8391 12.7988 28.5827C12.7988 29.334 13.4795 29.9438 14.3183 29.9438C15.157 29.9438 15.8377 29.334 15.8377 28.5827V6.8054C15.8377 4.55009 17.8783 2.72216 20.3961 2.72216H75.0962C74.1161 3.89269 73.5767 5.32455 73.5767 6.8054V31.3334C73.5767 32.0847 74.2574 32.6945 75.0962 32.6945C75.9349 32.6945 76.6156 32.0847 76.6156 31.3334V13.6108H84.2129C86.7306 13.6108 88.7712 11.7829 88.7712 9.52756V6.8054C88.7712 5.00061 87.9705 3.2693 86.5468 1.99261C85.1215 0.717275 83.1888 0 81.174 0ZM81.174 2.72216C79.9645 2.72216 78.8052 3.1523 77.9512 3.91859C77.0958 4.68352 76.6156 5.72198 76.6156 6.8054V10.8886H84.2129C85.0516 10.8886 85.7323 10.2789 85.7323 9.52756V6.8054C85.7323 5.72198 85.2522 4.68352 84.3967 3.91859C83.5428 3.1523 82.3835 2.72216 81.174 2.72216Z" fill="#d8b572"/>
<path fill-rule="evenodd" clip-rule="evenodd" d="M40.1492 39.4713C40.1492 37.6665 39.3485 35.9352 37.9247 34.6585C36.4995 33.3832 34.5667 32.6659 32.552 32.6659C25.8071 32.6659 14.9856 32.6659 8.24079 32.6659C6.22601 32.6659 4.29326 33.3832 2.86802 34.6585C1.4443 35.9352 0.643555 37.6665 0.643555 39.4713C0.643555 47.8392 0.643555 63.7693 0.643555 72.1372C0.643555 73.942 1.4443 75.6733 2.86802 76.95C4.29326 78.2253 6.22601 78.9426 8.24079 78.9426C14.9856 78.9426 25.8071 78.9426 32.552 78.9426C34.5667 78.9426 36.4995 78.2253 37.9247 76.95C39.3485 75.6733 40.1492 73.942 40.1492 72.1372C40.1492 63.7693 40.1492 47.8392 40.1492 39.4713ZM37.1103 39.4713V72.1372C37.1103 73.2206 36.6302 74.2591 35.7747 75.024C34.9208 75.7903 33.7614 76.2205 32.552 76.2205H8.24079C7.03131 76.2205 5.87197 75.7903 5.01804 75.024C4.16259 74.2591 3.68245 73.2206 3.68245 72.1372C3.68245 63.7693 3.68245 47.8392 3.68245 39.4713C3.68245 38.3879 4.16259 37.3494 5.01804 36.5845C5.87197 35.8182 7.03131 35.3881 8.24079 35.3881H32.552C33.7614 35.3881 34.9208 35.8182 35.7747 36.5845C36.6302 37.3494 37.1103 38.3879 37.1103 39.4713Z" fill="#d8b572"/>
<path fill-rule="evenodd" clip-rule="evenodd" d="M34.0717 42.1935C34.0717 39.9382 32.0311 38.1102 29.5134 38.1102H11.28C8.7623 38.1102 6.72168 39.9382 6.72168 42.1935V47.6378C6.72168 49.8931 8.7623 51.721 11.28 51.721H29.5134C32.0311 51.721 34.0717 49.8931 34.0717 47.6378V42.1935ZM31.0328 42.1935V47.6378C31.0328 48.3891 30.3521 48.9989 29.5134 48.9989H11.28C10.4413 48.9989 9.76058 48.3891 9.76058 47.6378V42.1935C9.76058 41.4422 10.4413 40.8324 11.28 40.8324H29.5134C30.3521 40.8324 31.0328 41.4422 31.0328 42.1935Z" fill="#d8b572"/>
<path fill-rule="evenodd" clip-rule="evenodd" d="M34.0717 69.4151V58.5264C34.0717 56.2711 32.0311 54.4432 29.5134 54.4432H11.28C8.7623 54.4432 6.72168 56.2711 6.72168 58.5264V69.4151C6.72168 71.6704 8.7623 73.4983 11.28 73.4983H29.5134C32.0311 73.4983 34.0717 71.6704 34.0717 69.4151ZM12.7995 70.7761H11.28C10.4413 70.7761 9.76058 70.1664 9.76058 69.4151V68.054H12.7995V70.7761ZM15.8384 68.054V70.7761H18.8773V68.054H15.8384ZM21.9162 68.054V70.7761H24.9551V68.054H21.9162ZM31.0328 68.054V69.4151C31.0328 70.1664 30.3521 70.7761 29.5134 70.7761H27.9939V68.054H31.0328ZM9.76058 62.6097V65.3318H12.7995V62.6097H9.76058ZM15.8384 62.6097V65.3318H18.8773V62.6097H15.8384ZM21.9162 62.6097V65.3318H24.9551V62.6097H21.9162ZM27.9939 62.6097V65.3318H31.0328V62.6097H27.9939ZM12.7995 57.1653V59.8875H9.76058V58.5264C9.76058 57.7751 10.4413 57.1653 11.28 57.1653H12.7995ZM15.8384 57.1653V59.8875H18.8773V57.1653H15.8384ZM21.9162 57.1653V59.8875H24.9551V57.1653H21.9162ZM27.9939 57.1653H29.5134C30.3521 57.1653 31.0328 57.7751 31.0328 58.5264V59.8875H27.9939V57.1653ZM52.416 65.3318H44.7808C43.9436 65.3318 43.2614 65.9416 43.2614 66.6929C43.2614 67.4442 43.9436 68.054 44.7808 68.054H59.9023C60.7411 68.054 61.4218 68.6637 61.4218 69.4151V72.1372C61.4218 73.6181 61.9612 75.0499 62.9412 76.2205H44.7079C43.8691 76.2205 43.1884 76.8302 43.1884 77.5815C43.1884 78.3329 43.8691 78.9426 44.7079 78.9426C44.7079 78.9426 68.4644 78.9426 69.019 78.9426C71.0338 78.9426 72.9666 78.2253 74.3918 76.95C75.8155 75.6733 76.6163 73.942 76.6163 72.1372V69.3565C76.6163 68.6052 75.9356 67.9954 75.0968 67.9954C74.2581 67.9954 73.5774 68.6052 73.5774 69.3565V72.1372C73.5774 73.2206 73.0972 74.2591 72.2418 75.024C71.3879 75.7903 70.2285 76.2205 69.019 76.2205C67.8096 76.2205 66.6502 75.7903 65.7963 75.024C64.9408 74.2591 64.4607 73.2206 64.4607 72.1372V69.4151C64.4607 68.9251 64.3635 68.4541 64.1872 68.0186C74.5088 67.4415 82.6941 59.75 82.6941 50.3599C82.6941 40.5942 73.8433 32.6659 62.9412 32.6659C52.0392 32.6659 43.1884 40.5942 43.1884 50.3599C43.1884 56.6604 46.8731 62.1959 52.416 65.3318ZM62.9412 35.3881C72.1658 35.3881 79.6552 42.0968 79.6552 50.3599C79.6552 58.6231 72.1658 65.3318 62.9412 65.3318C53.7167 65.3318 46.2273 58.6231 46.2273 50.3599C46.2273 42.0968 53.7167 35.3881 62.9412 35.3881Z" fill="#d8b572"/>
<path fill-rule="evenodd" clip-rule="evenodd" d="M61.4215 40.8324C58.0636 40.8324 55.3438 43.2701 55.3438 46.2767C55.3438 49.2833 58.0636 51.721 61.4215 51.721V57.1654C59.7426 57.1654 58.3826 55.9472 58.3826 54.4432C58.3826 53.6919 57.7019 53.0821 56.8632 53.0821C56.0245 53.0821 55.3438 53.6919 55.3438 54.4432C55.3438 57.4498 58.0636 59.8875 61.4215 59.8875V61.2486C61.4215 61.9999 62.1023 62.6097 62.941 62.6097C63.7797 62.6097 64.4604 61.9999 64.4604 61.2486V59.8875C67.8169 59.8875 70.5382 57.4498 70.5382 54.4432C70.5382 51.4366 67.8169 48.9989 64.4604 48.9989V43.5546C66.1379 43.5546 67.4993 44.7727 67.4993 46.2767C67.4993 47.028 68.18 47.6378 69.0188 47.6378C69.8575 47.6378 70.5382 47.028 70.5382 46.2767C70.5382 43.2701 67.8169 40.8324 64.4604 40.8324V39.4713C64.4604 38.72 63.7797 38.1102 62.941 38.1102C62.1023 38.1102 61.4215 38.72 61.4215 39.4713V40.8324ZM64.4604 51.721V57.1654C66.1379 57.1654 67.4993 55.9472 67.4993 54.4432C67.4993 52.9392 66.1379 51.721 64.4604 51.721ZM61.4215 43.5546C59.7426 43.5546 58.3826 44.7727 58.3826 46.2767C58.3826 47.7807 59.7426 48.9989 61.4215 48.9989V43.5546Z" fill="#d8b572"/>
<path fill-rule="evenodd" clip-rule="evenodd" d="M29.5134 10.8887C26.9972 10.8887 24.9551 12.718 24.9551 14.9719C24.9551 17.2259 26.9972 19.0552 29.5134 19.0552C32.0296 19.0552 34.0718 17.2259 34.0718 14.9719C34.0718 12.718 32.0296 10.8887 29.5134 10.8887ZM29.5134 13.6108C30.3522 13.6108 31.0329 14.2206 31.0329 14.9719C31.0329 15.7232 30.3522 16.333 29.5134 16.333C28.6747 16.333 27.994 15.7232 27.994 14.9719C27.994 14.2206 28.6747 13.6108 29.5134 13.6108Z" fill="#d8b572"/>
<path fill-rule="evenodd" clip-rule="evenodd" d="M41.6687 21.7773C39.1525 21.7773 37.1104 23.6066 37.1104 25.8606C37.1104 28.1145 39.1525 29.9438 41.6687 29.9438C44.1849 29.9438 46.227 28.1145 46.227 25.8606C46.227 23.6066 44.1849 21.7773 41.6687 21.7773ZM41.6687 24.4995C42.5074 24.4995 43.1881 25.1093 43.1881 25.8606C43.1881 26.6119 42.5074 27.2217 41.6687 27.2217C40.83 27.2217 40.1492 26.6119 40.1492 25.8606C40.1492 25.1093 40.83 24.4995 41.6687 24.4995Z" fill="#d8b572"/>
<path fill-rule="evenodd" clip-rule="evenodd" d="M27.548 29.5451L45.7814 13.2121C46.374 12.6813 46.374 11.8185 45.7814 11.2876C45.1888 10.7568 44.2255 10.7568 43.6329 11.2876L25.3995 27.6206C24.8069 28.1514 24.8069 29.0143 25.3995 29.5451C25.9921 30.0759 26.9554 30.0759 27.548 29.5451Z" fill="#d8b572"/>
<path fill-rule="evenodd" clip-rule="evenodd" d="M50.7851 13.6108H62.9407C63.7794 13.6108 64.4601 13.0011 64.4601 12.2498C64.4601 11.4984 63.7794 10.8887 62.9407 10.8887H50.7851C49.9463 10.8887 49.2656 11.4984 49.2656 12.2498C49.2656 13.0011 49.9463 13.6108 50.7851 13.6108Z" fill="#d8b572"/>
<path fill-rule="evenodd" clip-rule="evenodd" d="M50.7851 19.0552H62.9407C63.7794 19.0552 64.4601 18.4454 64.4601 17.6941C64.4601 16.9428 63.7794 16.333 62.9407 16.333H50.7851C49.9463 16.333 49.2656 16.9428 49.2656 17.6941C49.2656 18.4454 49.9463 19.0552 50.7851 19.0552Z" fill="#d8b572"/>
<path fill-rule="evenodd" clip-rule="evenodd" d="M50.7851 24.4995H62.9407C63.7794 24.4995 64.4601 23.8897 64.4601 23.1384C64.4601 22.3871 63.7794 21.7773 62.9407 21.7773H50.7851C49.9463 21.7773 49.2656 22.3871 49.2656 23.1384C49.2656 23.8897 49.9463 24.4995 50.7851 24.4995Z" fill="#d8b572"/>
<path fill-rule="evenodd" clip-rule="evenodd" d="M50.7851 29.9437H62.9407C63.7794 29.9437 64.4601 29.334 64.4601 28.5826C64.4601 27.8313 63.7794 27.2216 62.9407 27.2216H50.7851C49.9463 27.2216 49.2656 27.8313 49.2656 28.5826C49.2656 29.334 49.9463 29.9437 50.7851 29.9437Z" fill="#d8b572"/>
</svg>
