<svg width="65" height="83" viewBox="0 0 65 83" fill="none" xmlns="http://www.w3.org/2000/svg">
<path fill-rule="evenodd" clip-rule="evenodd" d="M6.15375 0.206043C2.97688 0.206043 0.375 2.79929 0.375 5.97329V26.012C0.375 26.3933 0.526451 26.7589 0.796034 27.0285C1.06562 27.2981 1.43125 27.4495 1.8125 27.4495C2.19375 27.4495 2.55938 27.2981 2.82897 27.0285C3.09855 26.7589 3.25 26.3933 3.25 26.012V5.97617C3.24573 5.5942 3.31801 5.21524 3.46257 4.86165C3.60714 4.50807 3.82105 4.18701 4.0917 3.91744C4.36234 3.64786 4.68424 3.43522 5.0384 3.29207C5.39256 3.14891 5.7718 3.07814 6.15375 3.08392H48.813V10.3577C48.813 10.3577 48.79 11.7319 49.5088 13.1464C50.2275 14.5609 51.9468 16.0789 54.5889 16.0789H61.8339V76.3734C61.8385 76.7558 61.7665 77.1352 61.6222 77.4892C61.4778 77.8433 61.264 78.1649 60.9934 78.435C60.7227 78.7051 60.4007 78.9183 60.0464 79.0619C59.692 79.2056 59.3125 79.2768 58.9301 79.2714H6.15375C5.77117 79.2768 5.39139 79.2055 5.03683 79.0617C4.68228 78.9179 4.36014 78.7044 4.08946 78.434C3.81877 78.1636 3.60502 77.8417 3.46084 77.4873C3.31666 77.1328 3.24497 76.7531 3.25 76.3705V33.4353C3.25 33.054 3.09855 32.6884 2.82897 32.4188C2.55938 32.1492 2.19375 31.9978 1.8125 31.9978C1.43125 31.9978 1.06562 32.1492 0.796034 32.4188C0.526451 32.6884 0.375 33.054 0.375 33.4353V76.3705C0.375 79.5445 2.97688 82.1435 6.15375 82.1435H58.9301C62.1041 82.1435 64.7089 79.5445 64.7089 76.3705V14.7449C64.7217 14.5643 64.7002 14.3828 64.6456 14.2102C64.6429 14.1986 64.64 14.1871 64.637 14.1757C64.6093 14.0961 64.5747 14.0192 64.5335 13.9457C64.5289 13.9341 64.5241 13.9226 64.5191 13.9112C64.501 13.8817 64.4818 13.853 64.4616 13.8249C64.4541 13.8152 64.4464 13.8057 64.4386 13.7962C64.4178 13.7646 64.3957 13.734 64.3725 13.7042C64.3649 13.6964 64.3573 13.6887 64.3495 13.6812C64.3291 13.6585 64.308 13.6364 64.2862 13.615L51.2654 0.620043C51.1288 0.484725 50.9666 0.378165 50.7881 0.306668C50.6989 0.27166 50.6065 0.245655 50.5121 0.229042C50.4646 0.218953 50.4166 0.211277 50.3684 0.206043C50.3291 0.204431 50.2898 0.204431 50.2505 0.206043H6.15375ZM51.688 5.10792L59.7955 13.1982H54.5918C52.8926 13.1982 52.4412 12.5714 52.0732 11.8469C51.7052 11.1195 51.688 10.3519 51.688 10.3519V5.10792ZM30.62 16.1249V16.1853C30.577 16.1816 30.5337 16.1816 30.4906 16.1853C30.4753 16.1848 30.46 16.1848 30.4446 16.1853C30.4331 16.185 30.4216 16.185 30.4101 16.1853C30.4063 16.1853 30.4025 16.1853 30.3986 16.1853C30.3779 16.1977 30.3577 16.2112 30.3382 16.2255C30.3325 16.2255 30.3268 16.2255 30.321 16.2255C30.175 16.2904 30.0535 16.4 29.9739 16.5385C29.8943 16.677 29.8608 16.8373 29.8783 16.996V19.848C29.8719 19.9044 29.8719 19.9613 29.8783 20.0177V22.8639C29.8665 22.9736 29.8789 23.0845 29.9146 23.1888C29.9504 23.2931 30.0087 23.3883 30.0852 23.4677C30.091 23.4677 30.0968 23.4677 30.1025 23.4677C30.1319 23.4971 30.1636 23.524 30.1974 23.5482C30.2031 23.5482 30.2089 23.5482 30.2146 23.5482C30.2185 23.5482 30.2223 23.5482 30.2261 23.5482C30.3707 23.6423 30.5433 23.6839 30.7149 23.666H33.633C33.8332 23.666 34.0251 23.5865 34.1666 23.445C34.3082 23.3035 34.3877 23.1115 34.3877 22.9114C34.3877 22.7112 34.3082 22.5192 34.1666 22.3777C34.0251 22.2362 33.8332 22.1567 33.633 22.1567H31.3819V20.6502H32.1294C32.3295 20.6502 32.5215 20.5707 32.663 20.4291C32.8046 20.2876 32.8841 20.0956 32.8841 19.8955C32.8841 19.6953 32.8046 19.5034 32.663 19.3618C32.5215 19.2203 32.3295 19.1408 32.1294 19.1408H31.3819V17.6343H33.633C33.8332 17.6343 34.0251 17.5548 34.1666 17.4132C34.3082 17.2717 34.3877 17.0798 34.3877 16.8796C34.3877 16.6794 34.3082 16.4875 34.1666 16.346C34.0251 16.2044 33.8332 16.1249 33.633 16.1249H30.6919C30.6679 16.1238 30.6439 16.1238 30.62 16.1249ZM24.5882 16.1824C24.4888 16.1832 24.3906 16.2065 24.2991 16.2454C24.2076 16.2843 24.1247 16.3409 24.0552 16.412C23.9858 16.4831 23.931 16.5672 23.8942 16.6596C23.8574 16.7519 23.8392 16.8506 23.8407 16.95V22.9099C23.8374 22.9775 23.8432 23.0452 23.858 23.1112C23.8627 23.1344 23.8684 23.1575 23.8752 23.1802C23.8768 23.1936 23.8787 23.2071 23.881 23.2204C23.8879 23.2399 23.8955 23.2591 23.904 23.2779C23.9166 23.3066 23.931 23.3344 23.9471 23.3613C23.9561 23.3779 23.9657 23.3942 23.9759 23.4102C23.9778 23.4102 23.9797 23.4102 23.9816 23.4102C23.9927 23.424 24.0042 23.4374 24.0161 23.4504C24.028 23.4653 24.0405 23.4796 24.0535 23.4935C24.059 23.5052 24.0647 23.5167 24.0707 23.528C24.0746 23.5281 24.0784 23.5281 24.0823 23.528C24.0989 23.5422 24.1162 23.5556 24.134 23.5683C24.1397 23.5684 24.1455 23.5684 24.1513 23.5683C24.1698 23.5826 24.189 23.596 24.2087 23.6085C24.3294 23.6841 24.4689 23.724 24.6113 23.7235H27.6099C27.81 23.7235 28.002 23.644 28.1435 23.5025C28.285 23.361 28.3646 23.169 28.3646 22.9689C28.3646 22.7687 28.285 22.5767 28.1435 22.4352C28.002 22.2937 27.81 22.2142 27.6099 22.2142H25.3559V16.9443C25.357 16.8434 25.338 16.7434 25.2997 16.65C25.2615 16.5567 25.2049 16.472 25.1333 16.4009C25.0617 16.3298 24.9766 16.2739 24.8829 16.2364C24.7893 16.1988 24.6891 16.1805 24.5882 16.1824ZM12.4471 16.1853C12.4146 16.1965 12.3829 16.21 12.3523 16.2255C11.7858 16.2682 11.2561 16.5226 10.8688 16.9382C10.4815 17.3538 10.2649 17.9 10.2621 18.468C10.2656 19.0562 10.497 19.62 10.9078 20.0409C11.3185 20.4619 11.8765 20.7071 12.4644 20.7249C12.474 20.7251 12.4835 20.7251 12.4931 20.7249H12.4989C12.5132 20.7253 12.5276 20.7253 12.542 20.7249C12.9733 20.7249 13.2953 21.0527 13.2953 21.481C13.2953 21.9123 12.9733 22.2343 12.542 22.2343H11.0326C10.93 22.2279 10.8271 22.2427 10.7304 22.2776C10.6337 22.3125 10.5451 22.3668 10.4702 22.4373C10.3953 22.5077 10.3356 22.5927 10.2947 22.6871C10.2539 22.7815 10.2329 22.8833 10.2329 22.9861C10.2329 23.0889 10.2539 23.1907 10.2947 23.2851C10.3356 23.3795 10.3953 23.4645 10.4702 23.5349C10.5451 23.6054 10.6337 23.6597 10.7304 23.6946C10.8271 23.7295 10.93 23.7443 11.0326 23.7379H12.542C12.5946 23.7435 12.6476 23.7435 12.7001 23.7379C13.269 23.6988 13.802 23.4464 14.1928 23.0311C14.5835 22.6159 14.803 22.0684 14.8075 21.4983C14.8041 20.9685 14.6157 20.4566 14.2751 20.0508C13.9344 19.6451 13.4628 19.371 12.9416 19.2759C12.862 19.2488 12.7785 19.2352 12.6944 19.2357H12.5794C12.5669 19.2354 12.5545 19.2354 12.542 19.2357C12.5353 19.2356 12.5286 19.2356 12.5219 19.2357C12.4222 19.2384 12.323 19.2209 12.2304 19.184C12.1377 19.1471 12.0536 19.0917 11.9831 19.0212C11.9126 18.9507 11.8572 18.8666 11.8203 18.7739C11.7834 18.6813 11.7659 18.5821 11.7686 18.4824C11.7686 18.0512 12.0906 17.732 12.5219 17.732H14.0312C14.2318 17.732 14.4241 17.6524 14.5659 17.5106C14.7077 17.3688 14.7874 17.1765 14.7874 16.9759C14.7874 16.7754 14.7077 16.5831 14.5659 16.4413C14.4241 16.2995 14.2318 16.2198 14.0312 16.2198H12.5219C12.497 16.2186 12.472 16.2186 12.4471 16.2198V16.1853ZM19.2609 16.1853C19.1187 16.1976 18.9829 16.2501 18.8694 16.3367C18.7559 16.4232 18.6693 16.5402 18.6197 16.674L16.3571 22.7058C16.2989 22.8905 16.3137 23.0906 16.3986 23.2647C16.4835 23.4388 16.6319 23.5736 16.8134 23.6415C16.9948 23.7093 17.1953 23.705 17.3736 23.6293C17.5519 23.5536 17.6944 23.4124 17.7716 23.2348L18.1454 22.2228H20.5L20.8738 23.2348C20.9439 23.4227 21.0858 23.5751 21.2683 23.6584C21.4509 23.7417 21.659 23.7491 21.8469 23.679C22.0349 23.6088 22.1873 23.4669 22.2706 23.2844C22.3539 23.1019 22.3613 22.8937 22.2911 22.7058L20.0285 16.674C19.9752 16.532 19.8803 16.4093 19.7562 16.3221C19.632 16.2349 19.4845 16.1872 19.3328 16.1853C19.3078 16.1841 19.2829 16.1841 19.258 16.1853H19.2609ZM38.0921 16.1853C38.0596 16.1965 38.0279 16.21 37.9972 16.2255C37.4312 16.2708 36.9027 16.5264 36.5158 16.9421C36.129 17.3577 35.9118 17.9031 35.9071 18.4709C35.9071 19.6928 36.8961 20.6904 38.1094 20.7249C38.119 20.7251 38.1285 20.7251 38.1381 20.7249H38.1439C38.1582 20.7272 38.1726 20.7292 38.187 20.7307C38.6183 20.7307 38.9403 21.0527 38.9403 21.481C38.9403 21.9123 38.6183 22.2343 38.187 22.2343H36.6776C36.4775 22.2343 36.2855 22.3138 36.144 22.4553C36.0025 22.5969 35.9229 22.7888 35.9229 22.989C35.9229 23.1891 36.0025 23.3811 36.144 23.5226C36.2855 23.6642 36.4775 23.7437 36.6776 23.7437H38.187C38.2396 23.7492 38.2926 23.7492 38.3451 23.7437C38.9137 23.7045 39.4465 23.452 39.8367 23.0367C40.227 22.6214 40.4459 22.0739 40.4496 21.504C40.4463 20.9747 40.2584 20.4631 39.9183 20.0574C39.5782 19.6517 39.1073 19.3774 38.5866 19.2817C38.507 19.2545 38.4235 19.2409 38.3394 19.2414H38.2244C38.2119 19.2411 38.1995 19.2411 38.187 19.2414C38.1803 19.2413 38.1736 19.2413 38.1669 19.2414C38.0672 19.2442 37.968 19.2266 37.8754 19.1897C37.7827 19.1529 37.6986 19.0975 37.6281 19.027C37.5576 18.9565 37.5022 18.8723 37.4653 18.7797C37.4284 18.687 37.4108 18.5878 37.4136 18.4882C37.4136 18.0569 37.7356 17.7378 38.1669 17.7378H39.6763C39.8768 17.7378 40.0691 17.6581 40.2109 17.5163C40.3527 17.3745 40.4324 17.1822 40.4324 16.9817C40.4324 16.7811 40.3527 16.5888 40.2109 16.447C40.0691 16.3052 39.8768 16.2255 39.6763 16.2255H38.1669C38.142 16.2243 38.117 16.2243 38.0921 16.2255V16.1853ZM19.3213 19.0862L19.9365 20.7163H18.7175L19.3213 19.0862ZM37.1693 30.5689C37.0898 30.5766 37.011 30.5901 36.9335 30.6092H33.38C32.9419 30.6092 32.5218 30.7832 32.2121 31.0929C31.9023 31.4027 31.7283 31.8228 31.7283 32.2609C31.7283 32.6989 31.9023 33.119 32.2121 33.4288C32.5218 33.7385 32.9419 33.9125 33.38 33.9125H34.3518L30.827 39.7862L25.6721 36.1752C25.3309 35.936 24.9118 35.8348 24.4991 35.8919C24.0863 35.949 23.7104 36.1601 23.4469 36.4828L16.8459 44.5759C16.698 44.7422 16.5853 44.9366 16.5144 45.1475C16.4436 45.3584 16.4162 45.5815 16.4338 45.8033C16.4514 46.0251 16.5137 46.2411 16.6169 46.4382C16.7201 46.6353 16.8621 46.8095 17.0344 46.9503C17.2066 47.0912 17.4056 47.1957 17.6193 47.2577C17.833 47.3196 18.057 47.3378 18.2779 47.3109C18.4987 47.2841 18.7119 47.2129 18.9045 47.1016C19.0972 46.9903 19.2653 46.8411 19.3989 46.6632L25.0368 39.7632L30.3842 43.5064C30.5699 43.6366 30.7803 43.7271 31.0024 43.7724C31.2246 43.8176 31.4537 43.8166 31.6754 43.7694C31.8972 43.7222 32.1068 43.6298 32.2912 43.498C32.4757 43.3662 32.631 43.1978 32.7475 43.0033L36.6834 36.4425V37.213C36.6834 37.4298 36.7261 37.6443 36.809 37.8446C36.8919 38.0448 37.0135 38.2267 37.1667 38.3799C37.32 38.5332 37.5019 38.6547 37.7021 38.7377C37.9023 38.8206 38.1169 38.8633 38.3336 38.8633C38.5503 38.8633 38.7649 38.8206 38.9651 38.7377C39.1654 38.6547 39.3473 38.5332 39.5005 38.3799C39.6538 38.2267 39.7753 38.0448 39.8583 37.8446C39.9412 37.6443 39.9839 37.4298 39.9839 37.213V32.2594C39.9839 31.8217 39.81 31.402 39.5005 31.0925C39.191 30.783 38.7713 30.6092 38.3336 30.6092H37.6609C37.5523 30.5846 37.4415 30.5711 37.3302 30.5689C37.2757 30.5662 37.2238 30.5662 37.1693 30.5689ZM11.8894 33.8464C11.4527 33.8532 11.0365 34.0329 10.732 34.346C10.4276 34.6591 10.2596 35.0801 10.265 35.5168V61.938C10.265 62.155 10.3078 62.3698 10.3909 62.5702C10.474 62.7706 10.5958 62.9527 10.7494 63.106C10.9029 63.2592 11.0852 63.3807 11.2857 63.4635C11.4863 63.5463 11.7012 63.5887 11.9181 63.5883H44.9145C45.3526 63.5883 45.7727 63.4143 46.0824 63.1045C46.3922 62.7948 46.5662 62.3747 46.5662 61.9366C46.5662 61.4986 46.3922 61.0784 46.0824 60.7687C45.7727 60.4589 45.3526 60.2849 44.9145 60.2849H40.0069V42.1207C40.01 41.9001 39.9688 41.6811 39.8858 41.4767C39.8028 41.2723 39.6797 41.0866 39.5237 40.9306C39.3677 40.7746 39.182 40.6515 38.9776 40.5685C38.7732 40.4855 38.5542 40.4443 38.3336 40.4474C38.1169 40.4504 37.9029 40.4961 37.7038 40.5818C37.5048 40.6675 37.3245 40.7916 37.1734 40.947C37.0223 41.1024 36.9033 41.286 36.8231 41.4874C36.743 41.6888 36.7033 41.9039 36.7064 42.1207V60.2849H33.403V48.7274C33.4065 48.5061 33.3654 48.2863 33.2823 48.0812C33.1991 47.8761 33.0755 47.6898 32.9189 47.5334C32.7622 47.377 32.5757 47.2537 32.3704 47.1709C32.1652 47.0881 31.9453 47.0474 31.724 47.0513C31.5073 47.055 31.2934 47.1014 31.0946 47.1878C30.8958 47.2743 30.716 47.399 30.5654 47.5549C30.4149 47.7108 30.2965 47.8949 30.217 48.0965C30.1376 48.2982 30.0987 48.5136 30.1025 48.7303V60.2878H26.7962V45.9962C26.7994 45.7751 26.758 45.5556 26.6747 45.3508C26.5913 45.146 26.4677 44.9601 26.3111 44.804C26.1545 44.6479 25.9681 44.5249 25.763 44.4423C25.5579 44.3596 25.3383 44.319 25.1173 44.3229C24.6806 44.3305 24.2647 44.5108 23.9608 44.8245C23.6568 45.1381 23.4896 45.5595 23.4958 45.9962V60.2849H20.1895V51.9819C20.1926 51.7613 20.1514 51.5424 20.0684 51.3379C19.9854 51.1335 19.8623 50.9478 19.7063 50.7919C19.5503 50.6359 19.3646 50.5127 19.1602 50.4297C18.9558 50.3467 18.7368 50.3056 18.5163 50.3087C18.2993 50.3113 18.085 50.3567 17.8856 50.4422C17.6862 50.5278 17.5056 50.6518 17.3542 50.8072C17.2028 50.9626 17.0835 51.1464 17.0032 51.348C16.9229 51.5495 16.8831 51.765 16.8861 51.9819V60.2849H13.5655V35.5168C13.5686 35.2957 13.5273 35.0763 13.4439 34.8715C13.3606 34.6667 13.2369 34.4807 13.0803 34.3246C12.9237 34.1686 12.7373 34.0455 12.5322 33.9629C12.3272 33.8803 12.1076 33.8397 11.8865 33.8435L11.8894 33.8464ZM52.1106 36.2413V36.2499C51.9425 36.2525 51.7765 36.2883 51.6223 36.3553C51.468 36.4222 51.3285 36.519 51.2118 36.64C51.095 36.761 51.0034 36.9039 50.942 37.0605C50.8806 37.217 50.8508 37.3842 50.8543 37.5523V38.6649C48.3473 39.191 46.3836 41.2237 46.3836 43.7738C46.3836 46.6977 48.9654 48.9315 51.9899 49.0034C52.0359 49.0034 52.0848 49.0322 52.1336 49.0322C53.9995 49.0322 55.3163 50.2972 55.3163 51.726C55.3163 53.1463 54.011 54.3998 52.1624 54.4142C52.147 54.4139 52.1317 54.4139 52.1164 54.4142H52.1106C52.1087 54.4142 52.1068 54.4142 52.1049 54.4142C50.2534 54.4142 48.9395 53.1463 48.9395 51.726C48.9395 51.3871 48.8049 51.0621 48.5652 50.8224C48.3255 50.5827 48.0005 50.4481 47.6616 50.4481C47.3226 50.4481 46.9976 50.5827 46.7579 50.8224C46.5183 51.0621 46.3836 51.3871 46.3836 51.726C46.3836 54.2388 48.3875 56.0357 50.8543 56.5704V57.9648C50.8543 58.3033 50.9887 58.628 51.2281 58.8674C51.4675 59.1068 51.7922 59.2413 52.1308 59.2413C52.4693 59.2413 52.794 59.1068 53.0334 58.8674C53.2728 58.628 53.4072 58.3033 53.4072 57.9648V56.5704C55.874 56.0357 57.8721 54.2417 57.8721 51.726C57.8721 49.0753 55.6497 47.2238 53.0047 46.8012C52.9383 46.7431 52.8661 46.692 52.7891 46.6488C52.7638 46.6335 52.7379 46.6191 52.7115 46.6057C52.6983 46.5958 52.6849 46.5862 52.6713 46.5769C52.6458 46.5646 52.6199 46.5531 52.5936 46.5424C52.5804 46.5306 52.567 46.5191 52.5534 46.5079C52.5259 46.4974 52.4981 46.4878 52.47 46.4792C52.4585 46.479 52.447 46.479 52.4355 46.4792C52.4071 46.4686 52.3783 46.459 52.3492 46.4504C52.3349 46.4502 52.3205 46.4502 52.3061 46.4504C52.3052 46.4504 52.3071 46.4504 52.3061 46.4504C52.2649 46.4484 52.2208 46.4484 52.1796 46.4504C52.1624 46.4501 52.1451 46.4501 52.1279 46.4504C50.262 46.4504 48.9366 45.1912 48.9366 43.7623C48.9366 42.3535 50.2333 41.1115 52.0618 41.0799C52.1096 41.0826 52.1576 41.0826 52.2055 41.0799C54.0282 41.1173 55.3163 42.3507 55.3163 43.7565C55.3162 44.0955 55.4509 44.4205 55.6905 44.6602C55.9302 44.8998 56.2553 45.0345 56.5942 45.0345C56.9331 45.0345 57.2582 44.8998 57.4978 44.6602C57.7375 44.4205 57.8721 44.0955 57.8721 43.7565C57.8721 41.2093 55.9142 39.1738 53.4072 38.6477V37.535C53.4096 37.3645 53.3777 37.1952 53.3135 37.0372C53.2493 36.8792 53.1541 36.7357 53.0335 36.6151C52.9129 36.4945 52.7693 36.3992 52.6113 36.335C52.4533 36.2709 52.2812 36.239 52.1106 36.2413Z" fill="#d8b572"/>
</svg>
