<svg width="88" height="64" viewBox="0 0 88 64" fill="none" xmlns="http://www.w3.org/2000/svg">
<path d="M52.4315 15.4766H59.7529C60.1424 15.4766 60.516 15.3218 60.7914 15.0464C61.0669 14.7709 61.2216 14.3973 61.2216 14.0078C61.2216 13.6183 61.0669 13.2447 60.7914 12.9692C60.516 12.6938 60.1424 12.5391 59.7529 12.5391H52.4315C52.042 12.5391 51.6684 12.6938 51.393 12.9692C51.1175 13.2447 50.9628 13.6183 50.9628 14.0078C50.9628 14.3973 51.1175 14.7709 51.393 15.0464C51.6684 15.3218 52.042 15.4766 52.4315 15.4766ZM52.4315 24.4727H69.7687C70.1582 24.4727 70.5318 24.3179 70.8072 24.0425C71.0827 23.767 71.2374 23.3934 71.2374 23.0039C71.2374 22.6144 71.0827 22.2408 70.8072 21.9653C70.5318 21.6899 70.1582 21.5352 69.7687 21.5352H52.4315C52.042 21.5352 51.6684 21.6899 51.393 21.9653C51.1175 22.2408 50.9628 22.6144 50.9628 23.0039C50.9628 23.3934 51.1175 23.767 51.393 24.0425C51.6684 24.3179 52.042 24.4727 52.4315 24.4727ZM52.4315 33.4688H69.7687C70.1582 33.4688 70.5318 33.314 70.8072 33.0386C71.0827 32.7631 71.2374 32.3895 71.2374 32C71.2374 31.6105 71.0827 31.2369 70.8072 30.9614C70.5318 30.686 70.1582 30.5312 69.7687 30.5312H52.4315C52.042 30.5312 51.6684 30.686 51.393 30.9614C51.1175 31.2369 50.9628 31.6105 50.9628 32C50.9628 32.3895 51.1175 32.7631 51.393 33.0386C51.6684 33.314 52.042 33.4688 52.4315 33.4688ZM52.4315 42.4648H69.7687C70.1582 42.4648 70.5318 42.3101 70.8072 42.0347C71.0827 41.7592 71.2374 41.3856 71.2374 40.9961C71.2374 40.6066 71.0827 40.233 70.8072 39.9575C70.5318 39.6821 70.1582 39.5273 69.7687 39.5273H52.4315C52.042 39.5273 51.6684 39.6821 51.393 39.9575C51.1175 40.233 50.9628 40.6066 50.9628 40.9961C50.9628 41.3856 51.1175 41.7592 51.393 42.0347C51.6684 42.3101 52.042 42.4648 52.4315 42.4648ZM18.2324 15.4766H25.5532C25.9428 15.4766 26.3163 15.3218 26.5918 15.0464C26.8672 14.7709 27.022 14.3973 27.022 14.0078C27.022 13.6183 26.8672 13.2447 26.5918 12.9692C26.3163 12.6938 25.9428 12.5391 25.5532 12.5391H18.2324C17.8429 12.5391 17.4693 12.6938 17.1939 12.9692C16.9184 13.2447 16.7637 13.6183 16.7637 14.0078C16.7637 14.3973 16.9184 14.7709 17.1939 15.0464C17.4693 15.3218 17.8429 15.4766 18.2324 15.4766ZM18.2324 24.4727H35.5695C35.9591 24.4727 36.3327 24.3179 36.6081 24.0425C36.8836 23.767 37.0383 23.3934 37.0383 23.0039C37.0383 22.6144 36.8836 22.2408 36.6081 21.9653C36.3327 21.6899 35.9591 21.5352 35.5695 21.5352H18.2324C17.8429 21.5352 17.4693 21.6899 17.1939 21.9653C16.9184 22.2408 16.7637 22.6144 16.7637 23.0039C16.7637 23.3934 16.9184 23.767 17.1939 24.0425C17.4693 24.3179 17.8429 24.4727 18.2324 24.4727ZM18.2324 33.4688H35.5695C35.9591 33.4688 36.3327 33.314 36.6081 33.0386C36.8836 32.7631 37.0383 32.3895 37.0383 32C37.0383 31.6105 36.8836 31.2369 36.6081 30.9614C36.3327 30.686 35.9591 30.5312 35.5695 30.5312H18.2324C17.8429 30.5312 17.4693 30.686 17.1939 30.9614C16.9184 31.2369 16.7637 31.6105 16.7637 32C16.7637 32.3895 16.9184 32.7631 17.1939 33.0386C17.4693 33.314 17.8429 33.4688 18.2324 33.4688ZM18.2324 42.4648H35.5695C35.9591 42.4648 36.3327 42.3101 36.6081 42.0347C36.8836 41.7592 37.0383 41.3856 37.0383 40.9961C37.0383 40.6066 36.8836 40.233 36.6081 39.9575C36.3327 39.6821 35.9591 39.5273 35.5695 39.5273H18.2324C17.8429 39.5273 17.4693 39.6821 17.1939 39.9575C16.9184 40.233 16.7637 40.6066 16.7637 40.9961C16.7637 41.3856 16.9184 41.7592 17.1939 42.0347C17.4693 42.3101 17.8429 42.4648 18.2324 42.4648Z" fill="#d8b572"/>
<path d="M85.7736 8.86719H79.8008V7.46912C79.8036 5.55983 79.05 3.72715 77.705 2.37205C76.36 1.01694 74.533 0.249737 72.6237 0.238281H54.004C53.1645 0.244362 52.3325 0.397403 51.5457 0.690472L45.4541 2.91545C44.5152 3.25783 43.4859 3.25952 42.5459 2.92022L36.4543 0.688085C35.6674 0.395743 34.8354 0.243507 33.996 0.238281H15.3763C13.467 0.249737 11.64 1.01694 10.295 2.37205C8.94996 3.72715 8.19642 5.55983 8.19922 7.46912V8.86719H2.22636C1.82356 8.8733 1.4383 9.03305 1.14936 9.31377C0.860418 9.59448 0.689617 9.97497 0.671875 10.3774V62.2546C0.689781 62.6567 0.860731 63.0368 1.14972 63.317C1.43871 63.5972 1.82388 63.7563 2.22636 63.7617H85.7736C86.1761 63.7563 86.5613 63.5972 86.8503 63.317C87.1393 63.0368 87.3102 62.6567 87.3281 62.2546V10.3774C87.3104 9.97497 87.1396 9.59448 86.8506 9.31377C86.5617 9.03305 86.1764 8.8733 85.7736 8.86719ZM52.5498 3.45117C53.0148 3.2753 53.5069 3.1821 54.004 3.17578H72.6237C73.7542 3.18635 74.8345 3.64378 75.6289 4.44819C76.4232 5.2526 76.867 6.33863 76.8633 7.46912V47.2974C76.8633 49.6434 74.9701 51.4609 72.6237 51.4609H54.004C53.1631 51.4762 52.3312 51.6382 51.5461 51.9398L45.4688 54.1965V5.96641C45.805 5.89356 46.1356 5.79687 46.4581 5.67706L52.5498 3.45117ZM11.1367 7.46912C11.133 6.33863 11.5768 5.2526 12.3711 4.44819C13.1655 3.64378 14.2458 3.18635 15.3763 3.17578H33.996C34.493 3.18208 34.9851 3.27528 35.45 3.45117L41.5419 5.67615C41.8643 5.79626 42.195 5.89326 42.5312 5.96641V54.1965L36.4543 51.9407C35.6691 51.6387 34.8371 51.4764 33.996 51.4609H15.3763C13.0299 51.4609 11.1367 49.6434 11.1367 47.2974V7.46912ZM84.3906 60.8242H3.60938V11.8047H8.19922V47.2974C8.20034 48.236 8.3873 49.1651 8.74932 50.0311C9.11134 50.8971 9.64125 51.6829 10.3085 52.343C10.9757 53.0032 11.767 53.5247 12.6368 53.8775C13.5066 54.2302 14.4377 54.4073 15.3763 54.3984H33.996C34.4945 54.4139 34.9865 54.516 35.45 54.7003L41.542 56.9386C43.1274 57.5242 44.8688 57.5302 46.4581 56.9557L52.5498 54.6975C53.0135 54.5141 53.5056 54.4129 54.004 54.3984H72.6237C73.5623 54.4073 74.4934 54.2302 75.3632 53.8775C76.233 53.5247 77.0243 53.0032 77.6915 52.343C78.3588 51.6829 78.8887 50.8971 79.2507 50.0311C79.6127 49.1651 79.7997 48.236 79.8008 47.2974V11.8047H84.3906V60.8242Z" fill="#d8b572"/>
</svg>
