<svg width="85" height="85" viewBox="0 0 85 85" fill="none" xmlns="http://www.w3.org/2000/svg">
<path d="M67.3827 35.3533V0.756836H3.75397V11.9378H0.232422V13.7134H3.75397V23.8072H0.232422V25.5827H3.75397V35.6775H0.232422V37.453H3.75397V47.5469H0.232422V49.3224H3.75397V59.4162H0.232422V61.1917H3.75397V71.2865H0.232422V73.062H3.75397V84.2431H50.3022V82.4676H5.52948V73.0621H9.32827C9.73966 75.0445 11.4992 76.5394 13.6017 76.5394C16.0083 76.5394 17.9668 74.581 17.9668 72.1743C17.9668 69.7677 16.0083 67.8092 13.6017 67.8092C11.4992 67.8092 9.73975 69.3042 9.32827 71.2866H5.52948V61.1918H9.32827C9.73966 63.1742 11.4992 64.6692 13.6017 64.6692C16.0083 64.6692 17.9668 62.7107 17.9668 60.3041C17.9668 57.8975 16.0083 55.9399 13.6017 55.9399C11.4993 55.9399 9.73975 57.4341 9.32827 59.4163H5.52948V49.3225H9.32827C9.73966 51.3048 11.4992 52.7998 13.6017 52.7998C16.0083 52.7998 17.9668 50.8413 17.9668 48.4347C17.9668 46.0281 16.0083 44.0696 13.6017 44.0696C11.4992 44.0696 9.73975 45.5646 9.32827 47.5469H5.52948V37.453H9.32827C9.73966 39.4352 11.4992 40.9294 13.6017 40.9294C16.0083 40.9294 17.9668 38.9719 17.9668 36.5652C17.9668 34.1586 16.0083 32.2001 13.6017 32.2001C11.4992 32.2001 9.73975 33.6951 9.32827 35.6775H5.52948V25.5827H9.32827C9.73966 27.5651 11.4992 29.0601 13.6017 29.0601C16.0083 29.0601 17.9668 27.1016 17.9668 24.695C17.9668 22.2884 16.0083 20.3299 13.6017 20.3299C11.4992 20.3299 9.73975 21.8249 9.32827 23.8072H5.52948V13.7134H9.32827C9.73966 15.6955 11.4992 17.1898 13.6017 17.1898C16.0083 17.1898 17.9668 15.2322 17.9668 12.8256C17.9668 10.419 16.0083 8.46051 13.6017 8.46051C11.4992 8.46051 9.73975 9.95549 9.32827 11.9378H5.52948V2.53235H65.6072V35.3533H67.3827ZM11.1788 71.2866C11.543 70.2967 12.4869 69.5848 13.6017 69.5848C15.0295 69.5848 16.1912 70.7465 16.1912 72.1743C16.1912 73.6022 15.0295 74.7639 13.6017 74.7639C12.4869 74.7639 11.543 74.052 11.1788 73.0621H13.6017V71.2866H11.1788ZM11.179 59.4163C11.5433 58.427 12.4871 57.7154 13.6017 57.7154C15.0295 57.7154 16.1912 58.8771 16.1912 60.3041C16.1912 61.7319 15.0295 62.8937 13.6017 62.8937C12.4869 62.8937 11.543 62.1818 11.1788 61.1918H13.6017V59.4163H11.179ZM11.1788 47.5469C11.543 46.557 12.4869 45.8451 13.6017 45.8451C15.0295 45.8451 16.1912 47.0068 16.1912 48.4347C16.1912 49.8626 15.0295 51.0243 13.6017 51.0243C12.4869 51.0243 11.543 50.3124 11.1788 49.3225H13.6017V47.5469H11.1788ZM13.6017 33.9757C15.0295 33.9757 16.1912 35.1374 16.1912 36.5652C16.1912 37.9922 15.0295 39.1539 13.6017 39.1539C12.4872 39.1539 11.5433 38.4423 11.179 37.453H13.6017V35.6775H11.1788C11.543 34.6875 12.4869 33.9757 13.6017 33.9757ZM11.1788 23.8072C11.543 22.8173 12.4869 22.1054 13.6017 22.1054C15.0295 22.1054 16.1912 23.2671 16.1912 24.695C16.1912 26.1228 15.0295 27.2846 13.6017 27.2846C12.4869 27.2846 11.543 26.5727 11.1788 25.5827H13.6017V23.8072H11.1788ZM13.6017 10.236C15.0295 10.236 16.1912 11.3977 16.1912 12.8256C16.1912 14.2526 15.0295 15.4143 13.6017 15.4143C12.4872 15.4143 11.5433 14.7027 11.179 13.7134H13.6017V11.9378H11.1788C11.543 10.9479 12.4869 10.236 13.6017 10.236Z" fill="#d8b572"/>
<path d="M58.1794 28.1733H52.6416V29.9489H58.1794V28.1733Z" fill="#d8b572"/>
<path d="M48.1969 28.1733H21.2695V29.9489H48.1969V28.1733Z" fill="#d8b572"/>
<path d="M58.1802 37.1328H40.5938V38.9083H58.1802V37.1328Z" fill="#d8b572"/>
<path d="M36.0063 37.1328H21.2695V38.9083H36.0063V37.1328Z" fill="#d8b572"/>
<path d="M58.179 46.0908H32.957V47.8663H58.179V46.0908Z" fill="#d8b572"/>
<path d="M27.7679 46.0908H21.2695V47.8663H27.7679V46.0908Z" fill="#d8b572"/>
<path d="M48.1969 55.0503H21.2695V56.8258H48.1969V55.0503Z" fill="#d8b572"/>
<path d="M46.284 64.0093H32.0684V65.7848H46.284V64.0093Z" fill="#d8b572"/>
<path d="M27.1163 64.0093H21.2695V65.7848H27.1163V64.0093Z" fill="#d8b572"/>
<path d="M38.3002 72.9688H21.2695V74.7443H38.3002V72.9688Z" fill="#d8b572"/>
<path d="M70.8636 66.7836V64.4229C70.8636 62.2662 69.3252 60.463 67.2883 60.0503V58.1514H72.1433V42.9347C72.1433 39.7686 69.5676 37.1929 66.4015 37.1929C63.2354 37.1929 60.6597 39.7686 60.6597 42.9347V58.1514H65.5128V60.0505C63.4768 60.4638 61.9393 62.2668 61.9393 64.4229V66.7836H50.7521L48.0352 80.0817H52.2147V84.2431H80.5882V80.0817H84.7686L82.0507 66.7836H70.8636ZM62.4352 56.3759V42.9347C62.4352 40.7474 64.2141 38.9684 66.4015 38.9684C68.5888 38.9684 70.3678 40.7474 70.3678 42.9347V56.3758L62.4352 56.3759ZM63.7148 64.4229C63.7148 62.9413 64.9198 61.7362 66.4015 61.7362C67.8831 61.7362 69.0882 62.9412 69.0882 64.4229V66.7836H63.7149L63.7148 64.4229ZM78.8126 82.4676H53.9902V80.0817H78.8126V82.4676ZM50.2094 78.3062L51.0249 74.3166H56.2867V72.5411H51.3879L52.2017 68.5591C62.8758 68.5591 71.1807 68.5591 80.6011 68.5591L81.4149 72.5411H59.6531V74.3166H81.7779L82.5934 78.3061C82.4757 78.3053 80.0082 78.2994 50.2094 78.3062Z" fill="#d8b572"/>
<path d="M67.2892 48.4185H65.5137V52.4862H67.2892V48.4185Z" fill="#d8b572"/>
<path d="M67.2892 44.1602H65.5137V46.3556H67.2892V44.1602Z" fill="#d8b572"/>
<path d="M58.1196 63.3721H53.8877V65.1476H58.1196V63.3721Z" fill="#d8b572"/>
<path d="M78.9155 63.3721H74.6836V65.1476H78.9155V63.3721Z" fill="#d8b572"/>
<path d="M73.2931 24.0835H71.5176V29.0603H73.2931V24.0835Z" fill="#d8b572"/>
<path d="M73.2931 5.39551H71.5176V20.2894H73.2931V5.39551Z" fill="#d8b572"/>
<path d="M76.7521 43.1553H74.9766V53.2402H76.7521V43.1553Z" fill="#d8b572"/>
<path d="M25.0156 11.9588H28.1023V20.5762H29.8903V11.9588H32.977V10.3848H25.0156V11.9588Z" fill="#d8b572"/>
<path d="M34.4716 20.5761L35.2207 18.6047H39.8962L40.6452 20.5761H42.6774L38.6738 10.3843H36.4431L32.4395 20.5761H34.4716ZM37.5588 12.172L39.3924 17.0312H35.7251L37.5588 12.172Z" fill="#d8b572"/>
<path d="M44.8896 20.5762L47.7473 16.5884L50.6049 20.5762H52.7435L48.9235 15.3358L52.5145 10.3848H50.3599L47.7473 14.1133L45.1186 10.3848H42.98L46.555 15.3509L42.751 20.5762H44.8896Z" fill="#d8b572"/>
</svg>
