<svg width="66" height="84" viewBox="0 0 66 84" fill="none" xmlns="http://www.w3.org/2000/svg">
<path d="M1.43688 82.5776C1.83393 82.7635 2.27553 82.8331 2.71052 82.7784C3.14551 82.7236 3.55609 82.5468 3.89469 82.2682L9.40827 77.6701L16.0502 83.0309L16.0662 83.0432C16.4748 83.3647 16.9799 83.539 17.4998 83.5378C18.0198 83.5366 18.5241 83.36 18.9312 83.0365L18.9475 83.0235L25.5131 77.6661L32.0788 83.0235L32.0949 83.0365C32.502 83.3599 33.0063 83.5365 33.5261 83.5377C34.046 83.5389 34.5511 83.3647 34.9597 83.0432L34.9755 83.0309L41.6168 77.6699L47.1292 82.2681C47.47 82.547 47.8826 82.7239 48.3196 82.7787C48.7566 82.8334 49.2001 82.7636 49.5992 82.5775C49.9757 82.4095 50.296 82.1371 50.5222 81.7924C50.7483 81.4478 50.8708 81.0454 50.875 80.6332V71.6381L54.6301 74.7819C55.0408 75.1245 55.559 75.3115 56.0938 75.3102C56.4224 75.3102 56.7467 75.2353 57.042 75.0911C57.4124 74.9203 57.7252 74.6457 57.9425 74.3005C58.1597 73.9553 58.2719 73.5545 58.2656 73.1467V64.1518L62.0687 67.2955C62.4885 67.6386 63.0143 67.8253 63.5564 67.8239C63.9011 67.824 64.2416 67.7492 64.5545 67.6047C64.9307 67.4366 65.2507 67.164 65.4765 66.8193C65.7022 66.4746 65.8243 66.0723 65.8281 65.6603V6.56677C65.8281 3.20162 62.8586 0.40625 59.2182 0.40625H21.7547C18.1143 0.40625 15.125 3.20162 15.125 6.56677V7.96875H14.2684C10.6277 7.96875 7.73438 10.688 7.73438 14.0531V15.3594H6.78184C3.14136 15.3594 0.171875 18.1743 0.171875 21.5397V80.6332C0.173983 81.0445 0.294367 81.4465 0.518666 81.7913C0.742965 82.1361 1.06171 82.409 1.43688 82.5776ZM17.875 6.56677C17.875 4.71791 19.6305 3.15625 21.7547 3.15625H59.2182C61.3422 3.15625 63.0781 4.71791 63.0781 6.56677V64.5215L58.2656 60.5708V14.0531C58.2656 10.688 55.3723 7.96875 51.7316 7.96875H17.875V6.56677ZM10.4844 14.0531C10.4844 12.2043 12.1442 10.7188 14.2684 10.7188H51.7316C53.8558 10.7188 55.5156 12.2043 55.5156 14.0531V72.008L50.875 68.0563V21.5397C50.875 18.1743 47.8857 15.3594 44.2453 15.3594H10.4844V14.0531ZM2.92188 21.5397C2.92188 19.6906 4.65781 18.1094 6.78184 18.1094H44.2453C46.3695 18.1094 48.125 19.6906 48.125 21.5397V79.4944L43.1075 75.3204C43.1018 75.3157 43.0894 75.3111 43.0837 75.3064C42.6766 74.9758 42.169 74.7935 41.6445 74.7896C41.12 74.7857 40.6098 74.9604 40.1978 75.285C40.1925 75.2893 40.1854 75.2934 40.1806 75.2975L33.535 80.6612L26.9672 75.3025L26.95 75.2893C26.5416 74.9645 26.0352 74.7877 25.5135 74.7877C24.9917 74.7877 24.4853 74.9645 24.0769 75.2893L24.0606 75.3025L17.4933 80.6612L10.8486 75.2975L10.8328 75.285C10.4214 74.9604 9.91173 74.7856 9.38774 74.7895C8.86375 74.7934 8.35673 74.9758 7.95025 75.3064C7.94458 75.3111 7.93513 75.3157 7.92945 75.3204L2.92188 79.4944V21.5397Z" fill="#d8b572"/>
<path d="M14.71 67.4375H36.3171C36.6817 67.4375 37.0315 67.2926 37.2893 67.0348C37.5472 66.7769 37.6921 66.4272 37.6921 66.0625C37.6921 65.6978 37.5472 65.3481 37.2893 65.0902C37.0315 64.8324 36.6817 64.6875 36.3171 64.6875H14.71C14.3453 64.6875 13.9956 64.8324 13.7377 65.0902C13.4798 65.3481 13.335 65.6978 13.335 66.0625C13.335 66.4272 13.4798 66.7769 13.7377 67.0348C13.9956 67.2926 14.3453 67.4375 14.71 67.4375ZM25.5135 52.0942C24.2391 52.0927 23.0174 51.5858 22.1163 50.6847C21.2152 49.7836 20.7082 48.5619 20.7067 47.2876C20.7067 46.9229 20.5618 46.5732 20.304 46.3153C20.0461 46.0574 19.6964 45.9126 19.3317 45.9126C18.967 45.9126 18.6173 46.0574 18.3594 46.3153C18.1015 46.5732 17.9567 46.9229 17.9567 47.2876C17.959 48.9788 18.5278 50.6206 19.5721 51.9509C20.6165 53.2812 22.0763 54.2234 23.7186 54.6271V57.125C23.7186 57.4897 23.8635 57.8394 24.1213 58.0973C24.3792 58.3551 24.7289 58.5 25.0936 58.5C25.4583 58.5 25.808 58.3551 26.0659 58.0973C26.3238 57.8394 26.4686 57.4897 26.4686 57.125V54.7818C28.3745 54.5392 30.1163 53.5796 31.3398 52.0984C32.5634 50.6171 33.1767 48.7254 33.055 46.808C32.9333 44.8906 32.0858 43.0916 30.6849 41.7769C29.2839 40.4622 27.4347 39.7305 25.5135 39.7307C24.2775 39.7313 23.0888 39.2556 22.1943 38.4025C21.2999 37.5494 20.7685 36.3846 20.7105 35.1499C20.6525 33.9152 21.0724 32.7057 21.8829 31.7726C22.6935 30.8394 23.8324 30.2544 25.063 30.1391C25.0733 30.1391 25.0833 30.1406 25.0936 30.1406C25.1648 30.1404 25.2358 30.1347 25.3061 30.1234C25.3748 30.1205 25.4436 30.1181 25.5135 30.1181C26.7879 30.1197 28.0096 30.6266 28.9107 31.5277C29.8118 32.4288 30.3187 33.6506 30.3202 34.9249C30.3202 35.2896 30.465 35.6393 30.7229 35.8972C30.9808 36.1551 31.3305 36.2999 31.6952 36.2999C32.0598 36.2999 32.4096 36.1551 32.6674 35.8972C32.9253 35.6393 33.0702 35.2896 33.0702 34.9249C33.0678 33.087 32.3966 31.3127 31.1818 29.9334C29.9669 28.5541 28.2916 27.6642 26.4686 27.4298V25.3281C26.4686 24.9635 26.3238 24.6137 26.0659 24.3559C25.808 24.098 25.4583 23.9531 25.0936 23.9531C24.7289 23.9531 24.3792 24.098 24.1213 24.3559C23.8635 24.6137 23.7186 24.9635 23.7186 25.3281V27.5845C21.9233 28.0227 20.3509 29.1037 19.2987 30.6229C18.2465 32.1421 17.7875 33.9943 18.0086 35.829C18.2296 37.6637 19.1154 39.3539 20.4984 40.5797C21.8813 41.8055 23.6655 42.482 25.5135 42.4812C26.7834 42.4888 27.9986 42.9986 28.8939 43.8992C29.7891 44.7998 30.2916 46.0181 30.2916 47.288C30.2916 48.5579 29.7891 49.7761 28.8939 50.6768C27.9986 51.5774 26.7834 52.0871 25.5135 52.0947V52.0942Z" fill="#d8b572"/>
</svg>
