<svg width="87" height="81" viewBox="0 0 87 81" fill="none" xmlns="http://www.w3.org/2000/svg">
<path fill-rule="evenodd" clip-rule="evenodd" d="M81.1106 0.316895H5.89C2.7596 0.316895 0.220703 2.87049 0.220703 5.99865V57.9097C0.220703 61.047 2.7687 63.5914 5.89 63.5914H31.552L30.7057 71.5532H29.3589C26.7927 71.5532 24.6997 73.6508 24.6997 76.2226C24.6997 78.7945 26.7927 80.8921 29.3589 80.8921H57.6326C60.1988 80.8921 62.2918 78.7945 62.2918 76.2226C62.2918 73.6508 60.1988 71.5532 57.6326 71.5532H56.2858L55.4395 63.5914H81.1015C84.2319 63.5914 86.7708 61.0379 86.7708 57.9097V5.99865C86.7799 2.86137 84.2319 0.316895 81.1106 0.316895ZM60.1806 76.2135C60.1806 77.618 59.034 78.7671 57.6326 78.7671H29.368C27.9666 78.7671 26.82 77.618 26.82 76.2135C26.82 74.8091 27.9666 73.6599 29.368 73.6599H57.6417C59.0431 73.6599 60.1806 74.8091 60.1806 76.2135ZM54.1655 71.5441H32.8351L33.6814 63.5823H53.3192L54.1655 71.5441ZM84.6687 57.9006C84.6687 59.8705 83.0762 61.4665 81.1106 61.4665H5.89C3.9244 61.4665 2.3319 59.8705 2.3319 57.9006V5.99865C2.3319 4.02873 3.9244 2.43273 5.89 2.43273H81.1015C83.0671 2.43273 84.6596 4.02873 84.6596 5.99865V57.9006H84.6687ZM80.4372 5.98041H6.5634C5.981 5.98041 5.5078 6.45465 5.5078 7.03833V55.1007C5.5078 55.6844 5.981 56.1586 6.5634 56.1586H80.4372C81.0196 56.1586 81.4928 55.6844 81.4928 55.1007V7.03833C81.4928 6.45465 81.0196 5.98041 80.4372 5.98041ZM24.2993 54.0428C27.7027 46.5462 34.7734 42.123 43.5003 42.123C52.2272 42.123 59.2979 46.5462 62.7013 54.0428H24.2993ZM79.3816 54.0428H64.9854C61.4 45.242 53.4284 40.0071 43.5003 40.0071C33.5722 40.0071 25.6006 45.242 22.0152 54.0428H7.619V8.09625H79.3816V54.0428ZM55.2939 26.0535C55.2939 19.5419 50.0068 14.234 43.5003 14.234C37.0029 14.234 31.7067 19.5327 31.7067 26.0535C31.7067 32.5743 37.0029 37.8639 43.5003 37.8639C49.9977 37.8639 55.2939 32.5652 55.2939 26.0535ZM43.5003 35.7481C38.1677 35.7481 33.8179 31.3979 33.8179 26.0444C33.8179 20.691 38.1677 16.3499 43.5003 16.3499C48.8329 16.3499 53.1827 20.7001 53.1827 26.0535C53.1827 31.407 48.8329 35.7481 43.5003 35.7481ZM27.9666 30.9783H29.6865C30.2689 30.9783 30.7421 30.5041 30.7421 29.9204V22.1775C30.7421 22.0681 30.7148 21.9769 30.6784 21.8766C32.4711 16.3499 37.649 12.5377 43.5003 12.5377C49.3516 12.5377 54.5295 16.3499 56.3222 21.8766C56.2949 21.9769 56.2585 22.0681 56.2585 22.1775V29.9204C56.2585 30.3855 56.5679 30.7686 56.9865 30.9145V35.8849C56.9865 36.7239 56.304 37.4079 55.4668 37.4079H54.2019C53.8652 36.9337 53.3192 36.6145 52.6913 36.6145H50.5801C49.5609 36.6145 48.7328 37.4444 48.7328 38.4659C48.7328 39.4873 49.5609 40.3172 50.5801 40.3172H52.6913C53.3192 40.3172 53.8652 39.998 54.2019 39.5238H55.4668C57.4688 39.5238 59.0977 37.8913 59.0977 35.8849V30.9692C60.9996 30.9327 62.5466 29.3732 62.5466 27.458V24.6399C62.5466 22.6974 60.9723 21.1196 59.034 21.1196H58.2969C56.1857 14.7812 50.2252 10.4219 43.5003 10.4219C36.7754 10.4219 30.8149 14.7903 28.7128 21.1196H27.9757C26.0374 21.1196 24.4631 22.6974 24.4631 24.6399V27.458C24.454 29.4006 26.0283 30.9783 27.9666 30.9783ZM60.4354 24.6399V27.458C60.4354 28.2332 59.8075 28.8625 59.034 28.8625H58.3697V23.2355H59.034C59.8075 23.2355 60.4354 23.8647 60.4354 24.6399ZM26.5652 24.6399C26.5652 23.8647 27.1931 23.2355 27.9666 23.2355H28.6309V28.8625H27.9666C27.1931 28.8625 26.5652 28.2332 26.5652 27.458V24.6399Z" fill="#d8b572"/>
</svg>
