<svg width="74" height="74" viewBox="0 0 74 74" fill="none" xmlns="http://www.w3.org/2000/svg">
<path d="M36.9997 3.08336C28.2472 3.06093 19.8249 6.42293 13.4938 12.4664C7.16275 18.5099 3.41307 26.7669 3.02882 35.5109C2.64458 44.255 5.65552 52.8091 11.4321 59.3846C17.2087 65.9601 25.3036 70.048 34.0243 70.7934C34.2998 70.8179 34.5769 70.7679 34.8264 70.6486C35.076 70.5292 35.2888 70.3449 35.4426 70.115C35.5923 69.8889 35.6796 69.6273 35.6959 69.3566C35.7121 69.0859 35.6567 68.8158 35.5351 68.5734L27.5801 53.28C27.4387 53.0007 27.2156 52.771 26.9404 52.6216C26.6653 52.4722 26.3512 52.41 26.0399 52.4435C25.7285 52.477 25.4348 52.6045 25.1977 52.809C24.9606 53.0135 24.7914 53.2853 24.7126 53.5884L23.618 57.7509C18.8237 54.5734 15.3021 49.8084 13.6717 44.2926C12.0412 38.7768 12.4061 32.863 14.7024 27.5895C16.9986 22.3161 21.0793 18.0202 26.2279 15.4562C31.3765 12.8922 37.2638 12.2241 42.856 13.5692C48.4482 14.9143 53.3877 18.1866 56.8072 22.8115C60.2267 27.4363 61.9075 33.118 61.5544 38.8589C61.2014 44.5997 58.837 50.0326 54.8766 54.2036C50.9162 58.3746 45.6129 61.017 39.898 61.6667C39.522 61.7121 39.1759 61.8944 38.9257 62.1788C38.6754 62.4631 38.5386 62.8296 38.5414 63.2084V69.375C38.5419 69.5902 38.5874 69.8028 38.675 69.9993C38.7627 70.1958 38.8904 70.3717 39.0501 70.5159C39.3329 70.7729 39.701 70.9157 40.083 70.9167H40.2372C48.6152 69.9965 56.3649 66.0361 62.0189 59.7855C67.6728 53.5349 70.8385 45.428 70.9164 37C70.9164 28.0048 67.343 19.3779 60.9824 13.0173C54.6218 6.65672 45.995 3.08336 36.9997 3.08336ZM41.6247 67.6175V64.5342C48.1978 63.5047 54.1915 60.1742 58.5375 55.1366C62.8834 50.0989 65.2989 43.6816 65.3534 37.0286C65.4079 30.3757 63.0979 23.9196 58.8351 18.8114C54.5724 13.7032 48.634 10.275 42.0787 9.13788C35.5234 8.0008 28.7773 9.22879 23.0432 12.6029C17.3091 15.977 12.9596 21.278 10.7703 27.5606C8.58104 33.8433 8.69418 40.6993 11.0896 46.9063C13.485 53.1133 18.007 58.2678 23.8493 61.4509C24.0539 61.5612 24.2809 61.6238 24.5131 61.634C24.7454 61.6442 24.9769 61.6017 25.1904 61.5098C25.404 61.4178 25.5939 61.2788 25.7461 61.1031C25.8983 60.9274 26.0088 60.7195 26.0693 60.495L26.6705 58.2134L31.4189 67.34C25.6568 66.2796 20.3162 63.5994 16.0223 59.6134C11.7285 55.6274 8.65915 50.5005 7.17377 44.8331C5.6884 39.1657 5.84847 33.1924 7.63524 27.6127C9.422 22.033 12.7615 17.0778 17.2627 13.3275C21.7639 9.57716 27.2404 7.18687 33.0509 6.43654C38.8615 5.68621 44.7656 6.6069 50.0718 9.09079C55.378 11.5747 59.8667 15.519 63.0123 20.4618C66.1578 25.4045 67.83 31.1412 67.833 37C67.7652 44.3714 65.0999 51.4827 60.3062 57.0829C55.5125 62.6831 48.8974 66.4134 41.6247 67.6175ZM50.8747 37C50.8747 34.2558 50.061 31.5732 48.5364 29.2915C47.0118 27.0098 44.8448 25.2314 42.3094 24.1812C39.7741 23.131 36.9843 22.8563 34.2928 23.3916C31.6014 23.927 29.1291 25.2485 27.1886 27.1889C25.2482 29.1294 23.9267 31.6017 23.3913 34.2931C22.856 36.9846 23.1307 39.7744 24.1809 42.3098C25.2311 44.8451 27.0094 47.0121 29.2912 48.5367C31.5729 50.0613 34.2555 50.875 36.9997 50.875C40.6796 50.875 44.2088 49.4132 46.8108 46.8111C49.4129 44.2091 50.8747 40.6799 50.8747 37ZM36.9997 47.7917C34.8653 47.7917 32.7789 47.1588 31.0042 45.973C29.2295 44.7872 27.8463 43.1017 27.0295 41.1298C26.2127 39.1579 25.999 36.9881 26.4154 34.8947C26.8318 32.8013 27.8596 30.8784 29.3689 29.3692C30.8781 27.8599 32.801 26.8321 34.8944 26.4157C36.9877 25.9993 39.1576 26.213 41.1295 27.0298C43.1014 27.8466 44.7869 29.2298 45.9727 31.0045C47.1585 32.7792 47.7914 34.8656 47.7914 37C47.7914 39.8622 46.6544 42.6071 44.6306 44.6309C42.6067 46.6547 39.8618 47.7917 36.9997 47.7917ZM38.5414 30.8334H41.6247V33.9167H35.458V35.4584H40.083C40.4919 35.4584 40.8841 35.6208 41.1732 35.9099C41.4623 36.199 41.6247 36.5912 41.6247 37V41.625C41.6247 42.0339 41.4623 42.426 41.1732 42.7152C40.8841 43.0043 40.4919 43.1667 40.083 43.1667H38.5414V44.7084H35.458V43.1667H32.3747V40.0834H38.5414V38.5417H33.9164C33.5075 38.5417 33.1154 38.3793 32.8263 38.0902C32.5371 37.801 32.3747 37.4089 32.3747 37V32.375C32.3747 31.9662 32.5371 31.574 32.8263 31.2849C33.1154 30.9958 33.5075 30.8334 33.9164 30.8334H35.458V29.2917H38.5414V30.8334Z" fill="#d8b572"/>
</svg>
