<svg width="81" height="79" viewBox="0 0 81 79" fill="none" xmlns="http://www.w3.org/2000/svg">
<path d="M25.6738 62.6964C25.6032 62.696 25.5327 62.6901 25.463 62.6786L13.0118 60.683C12.709 60.6359 12.4334 60.4847 12.2347 60.2567C12.0359 60.0288 11.9271 59.739 11.9277 59.4396V52.597C11.9397 52.2718 12.0804 51.9638 12.3202 51.7379C12.5601 51.512 12.8803 51.3857 13.2135 51.3857C13.5468 51.3857 13.867 51.512 14.1068 51.7379C14.3466 51.9638 14.4874 52.2718 14.4993 52.597V58.3778L25.8797 60.2015C26.1968 60.2542 26.4821 60.4209 26.6796 60.6689C26.877 60.9168 26.9722 61.2279 26.9464 61.541C26.9205 61.854 26.7756 62.1463 26.54 62.3601C26.3045 62.574 25.9955 62.694 25.6738 62.6964ZM46.552 75.4884H26.9106C26.6134 75.4892 26.3201 75.4219 26.0543 75.2919C25.7885 75.162 25.5576 74.9731 25.3801 74.7403C25.2025 74.5075 25.0833 74.2374 25.032 73.9515C24.9806 73.6656 24.9986 73.372 25.0845 73.0941L31.8911 50.9613C32.1211 50.1977 32.5999 49.5281 33.2548 49.0542C33.9098 48.5803 34.7051 48.3278 35.5202 48.3351H55.0885C55.3854 48.3348 55.6783 48.4023 55.9438 48.5322C56.2092 48.6622 56.4399 48.8509 56.6173 49.0834C56.7947 49.3159 56.914 49.5857 56.9657 49.8712C57.0173 50.1567 56.9998 50.4501 56.9146 50.7279L55.643 54.8697C55.5946 55.0276 55.5148 55.1746 55.4082 55.3024C55.3017 55.4301 55.1703 55.5361 55.0218 55.6143C54.8733 55.6925 54.7104 55.7414 54.5425 55.7581C54.3747 55.7749 54.2051 55.7592 54.0434 55.7119C53.8818 55.6646 53.7312 55.5868 53.6004 55.4827C53.4696 55.3786 53.361 55.2504 53.2809 55.1054C53.2008 54.9603 53.1508 54.8013 53.1336 54.6374C53.1165 54.4735 53.1326 54.3078 53.181 54.15L54.1937 50.8462H35.5202C35.2617 50.8449 35.0098 50.9257 34.8023 51.0762C34.5949 51.2268 34.4431 51.439 34.3697 51.6811L27.8088 72.9757H46.552C46.7937 72.9747 47.0286 72.8978 47.2223 72.7566C47.416 72.6153 47.5581 72.4171 47.6277 72.1911L49.6315 65.5576C49.728 65.2384 49.9503 64.9696 50.2497 64.8105C50.549 64.6513 50.9009 64.6148 51.2278 64.709C51.5547 64.8031 51.8299 65.0202 51.9929 65.3126C52.1559 65.6049 52.1933 65.9484 52.0969 66.2677L50.0931 72.8947C49.8663 73.641 49.3995 74.2962 48.7618 74.7634C48.124 75.2305 47.3492 75.4847 46.552 75.4884ZM49.258 40.2799C49.1109 40.2804 48.9648 40.2558 48.8264 40.207C48.5763 40.1206 48.3598 39.9605 48.2069 39.7488C48.0541 39.5371 47.9723 39.2842 47.9731 39.0252V31.1191H46.7694C45.6224 31.1178 44.5228 30.6723 43.7117 29.8803C42.9006 29.0883 42.4444 28.0146 42.4431 26.8945V8.91012C42.4444 7.79009 42.9006 6.7163 43.7117 5.92432C44.5228 5.13233 45.6224 4.68683 46.7694 4.68555H76.2057C77.3527 4.68683 78.4523 5.13233 79.2634 5.92432C80.0745 6.7163 80.5307 7.79009 80.532 8.91012V26.8945C80.5307 28.0146 80.0745 29.0883 79.2634 29.8803C78.4523 30.6723 77.3527 31.1178 76.2057 31.1191H57.5322L50.2541 39.8244C50.133 39.9676 49.9808 40.0828 49.8086 40.1616C49.6363 40.2404 49.4482 40.2808 49.258 40.2799ZM46.7678 7.19662C46.3026 7.19748 45.8568 7.37828 45.5279 7.69944C45.199 8.0206 45.0139 8.45593 45.013 8.91012V26.8945C45.0139 27.3491 45.1992 27.7849 45.5284 28.1064C45.8576 28.4278 46.3039 28.6088 46.7694 28.6096H49.2597C49.4285 28.6094 49.5957 28.6417 49.7517 28.7047C49.9077 28.7677 50.0494 28.8601 50.1688 28.9767C50.2881 29.0932 50.3828 29.2316 50.4473 29.384C50.5118 29.5363 50.5448 29.6995 50.5446 29.8644V35.5058L55.9285 29.07C56.0492 28.926 56.2012 28.8099 56.3735 28.7303C56.5457 28.6506 56.734 28.6094 56.9246 28.6096H76.2057C76.6711 28.6088 77.1172 28.4278 77.4461 28.1063C77.775 27.7847 77.96 27.349 77.9605 26.8945V8.91012C77.96 8.4558 77.775 8.02022 77.446 7.69897C77.117 7.37772 76.6709 7.19705 76.2057 7.19662H46.7678Z" fill="#d8b572"/>
<path d="M61.6072 19.9836C60.6143 19.9836 59.6437 19.6961 58.8181 19.1574C57.9925 18.6187 57.349 17.8531 56.9691 16.9574C56.5891 16.0616 56.4897 15.076 56.6834 14.125C56.8771 13.1741 57.3552 12.3006 58.0573 11.615C58.7594 10.9294 59.654 10.4625 60.6278 10.2734C61.6017 10.0842 62.6111 10.1813 63.5284 10.5524C64.4458 10.9234 65.2298 11.5517 65.7815 12.3579C66.3331 13.164 66.6275 14.1118 66.6275 15.0814C66.6262 16.3811 66.0969 17.6273 65.1557 18.5463C64.2145 19.4654 62.9383 19.9823 61.6072 19.9836ZM61.6072 12.6887C61.1224 12.6883 60.6485 12.8284 60.2452 13.0912C59.842 13.354 59.5277 13.7277 59.342 14.165C59.1564 14.6023 59.1077 15.0835 59.2022 15.5478C59.2967 16.0121 59.5301 16.4386 59.8729 16.7733C60.2157 17.108 60.6524 17.336 61.1279 17.4282C61.6034 17.5205 62.0962 17.473 62.5441 17.2917C62.9919 17.1104 63.3746 16.8034 63.6437 16.4097C63.9128 16.016 64.0563 15.5531 64.056 15.0798C64.0551 14.446 63.7968 13.8385 63.3377 13.3905C62.8786 12.9425 62.2563 12.6907 61.6072 12.6903V12.6887Z" fill="#d8b572"/>
<path d="M67.4649 25.7046C67.1239 25.7041 66.7971 25.5716 66.5562 25.336C66.3152 25.1005 66.1799 24.7811 66.1799 24.4482C66.1799 23.2642 65.6982 22.1286 64.8408 21.2914C63.9833 20.4541 62.8204 19.9837 61.6078 19.9837C60.3952 19.9837 59.2323 20.4541 58.3749 21.2914C57.5175 22.1286 57.0358 23.2642 57.0358 24.4482C57.042 24.6169 57.0133 24.7851 56.9515 24.9427C56.8897 25.1003 56.796 25.2441 56.6759 25.3656C56.5559 25.4871 56.4121 25.5837 56.253 25.6497C56.0939 25.7157 55.9228 25.7497 55.75 25.7497C55.5771 25.7497 55.406 25.7157 55.2469 25.6497C55.0879 25.5837 54.944 25.4871 54.824 25.3656C54.704 25.2441 54.6103 25.1003 54.5485 24.9427C54.4866 24.7851 54.458 24.6169 54.4642 24.4482C54.4642 22.5982 55.2168 20.8239 56.5565 19.5158C57.8962 18.2076 59.7132 17.4727 61.6078 17.4727C63.5025 17.4727 65.3195 18.2076 66.6592 19.5158C67.9989 20.8239 68.7515 22.5982 68.7515 24.4482C68.7515 24.7814 68.6159 25.101 68.3746 25.3366C68.1334 25.5722 67.8061 25.7046 67.4649 25.7046ZM52.4089 67.1673C51.1389 67.1673 49.4771 66.9971 48.31 66.2481C47.9918 66.0563 47.7227 65.7958 47.5236 65.4867C47.3245 65.1776 47.2005 64.8281 47.1612 64.4649C47.0898 63.6917 47.4251 62.9832 47.7787 62.4661C47.4666 61.5567 47.7522 60.5208 48.3166 59.6519C48.1838 58.5285 48.6354 57.5347 49.1683 56.828C48.942 56.0967 48.9891 55.3108 49.3011 54.6103C49.751 53.5679 50.606 52.8936 51.5357 52.853C52.5069 52.8076 55.882 53.469 56.893 53.6717C57.1102 53.7149 57.3122 53.8127 57.479 53.9554C58.4154 54.753 58.6046 55.6381 58.5996 56.2395C58.5897 57.1846 58.1016 57.9968 57.6517 58.5366C57.7532 58.9584 57.7567 59.3971 57.6619 59.8204C57.5671 60.2437 57.3764 60.6409 57.1038 60.9828C57.2506 61.9662 57.0245 62.9682 56.468 63.8003C56.5483 64.3305 56.4741 64.8721 56.2538 65.363C55.862 66.2708 55.0917 66.9176 54.2616 67.0522C53.6476 67.1331 53.0285 67.1715 52.4089 67.1673ZM49.7527 64.1634C50.6408 64.7113 52.7409 64.7292 53.7619 64.5833C53.8572 64.4811 53.919 64.3536 53.9396 64.2169C53.7715 63.9736 53.7001 63.6787 53.739 63.3877C53.7778 63.0966 53.9241 62.8295 54.1504 62.6363C54.3528 62.4219 54.4908 62.1572 54.5494 61.8713C54.608 61.5853 54.5848 61.2892 54.4824 61.0152C54.3833 60.7647 54.3737 60.4889 54.455 60.2324C54.5364 59.9759 54.704 59.7536 54.9307 59.6016C55.3009 59.3034 55.1465 59.0618 55.0635 58.9305C54.9004 58.6745 54.8373 58.3696 54.8858 58.0719C54.9343 57.7741 55.0911 57.5034 55.3275 57.3094C55.6197 57.063 56.033 56.5426 56.0347 56.2168C56.0352 56.1589 56.0172 56.1022 55.9832 56.0547C54.3231 55.7305 52.4571 55.4062 51.8096 55.3673C51.6996 55.5063 51.6297 55.6714 51.6071 55.8456C51.5932 55.9048 51.5936 55.9664 51.6083 56.0255C51.623 56.0846 51.6516 56.1395 51.6917 56.186C51.8062 56.3117 51.8937 56.4586 51.949 56.6179C52.0043 56.7772 52.0264 56.9457 52.0138 57.1134C52.0013 57.2812 51.9544 57.4448 51.876 57.5946C51.7976 57.7444 51.6892 57.8773 51.5573 57.9854C51.5573 57.9854 50.6591 58.7603 50.9214 59.5644C50.9876 59.7668 51.0001 59.9823 50.9577 60.1907C50.9153 60.3991 50.8194 60.5935 50.679 60.7559C50.4499 61.0282 50.2324 61.4578 50.2258 61.6442C50.3555 61.7608 50.4595 61.9021 50.5312 62.0594C50.603 62.2167 50.641 62.3867 50.6431 62.5588C50.6451 62.731 50.611 62.9018 50.543 63.0606C50.4749 63.2195 50.3743 63.363 50.2474 63.4825C50.0392 63.6778 49.8693 63.9085 49.746 64.1634H49.7527ZM17.9407 30.9083C17.8435 30.9079 17.7466 30.897 17.6519 30.8759C17.3196 30.8013 17.0311 30.601 16.8499 30.3189C16.6688 30.0368 16.6097 29.6961 16.6857 29.3715L17.1555 27.3727C17.2398 27.0563 17.4472 26.7845 17.7335 26.6149C18.0198 26.4454 18.3625 26.3915 18.6888 26.4648C19.0151 26.538 19.2993 26.7325 19.4811 27.0071C19.6629 27.2816 19.7279 27.6146 19.6623 27.9352L19.1925 29.9356C19.1269 30.2119 18.9675 30.4584 18.7402 30.635C18.513 30.8116 18.2312 30.9079 17.9407 30.9083ZM30.7538 31.9944H30.6775C30.3375 31.9744 30.0196 31.8235 29.7933 31.575C29.5671 31.3264 29.451 31.0004 29.4705 30.6684L29.5203 29.8384C29.5401 29.506 29.6944 29.195 29.949 28.9736C30.2037 28.7523 30.538 28.6389 30.8783 28.6582C31.2187 28.6775 31.5372 28.8281 31.7639 29.0768C31.9905 29.3255 32.1068 29.6519 32.0869 29.9843L32.0371 30.8143C32.0173 31.1335 31.8734 31.4334 31.635 31.6527C31.3965 31.872 31.0814 31.9942 30.7538 31.9944Z" fill="#d8b572"/>
<path d="M17.4241 26.46C15.8552 26.46 14.1785 25.3252 12.8072 23.341C11.4829 21.3883 10.6878 19.1393 10.4962 16.8048C10.3551 14.9016 10.3418 11.1958 11.8343 7.72664C13.6605 3.5118 17.1933 0.997482 22.0659 0.472248C29.3706 -0.315604 33.7899 0.397678 35.9962 2.72071C37.3493 4.14403 37.7958 6.11203 37.3244 8.56799C37.0106 10.1891 36.4378 11.3692 35.621 12.0728C35.4945 12.1819 35.3472 12.2656 35.1875 12.3191C35.0278 12.3726 34.8589 12.3949 34.6904 12.3846C34.5219 12.3744 34.3571 12.3319 34.2054 12.2594C34.0538 12.187 33.9182 12.0861 33.8065 11.9626C33.6948 11.839 33.609 11.6951 33.5543 11.5392C33.4995 11.3833 33.4766 11.2183 33.4871 11.0538C33.4976 10.8893 33.5412 10.7284 33.6153 10.5803C33.6895 10.4322 33.7928 10.2998 33.9194 10.1907C34.0539 10.0756 34.5121 9.58442 34.7993 8.10274C35.1164 6.45084 34.8922 5.24799 34.1136 4.42772C32.5514 2.78393 28.5936 2.29274 22.3498 2.96873C12.8686 3.99164 12.8437 13.668 13.0612 16.6183C13.3683 20.6986 16.1491 23.9813 17.4473 23.9408C17.7879 23.9288 18.1194 24.0493 18.3689 24.276C18.6185 24.5026 18.7656 24.8168 18.7779 25.1493C18.7903 25.4819 18.6668 25.8056 18.4347 26.0493C18.2026 26.293 17.8809 26.4366 17.5403 26.4487L17.4241 26.46ZM21.5147 71.9949C21.4592 71.9951 21.4038 71.9918 21.3487 71.9852L8.35463 70.4127C8.31313 70.4127 8.27163 70.3997 8.23012 70.3916C6.02137 69.9162 4.04609 68.7163 2.63329 66.9916C1.22048 65.2669 0.455432 63.1216 0.465572 60.9131V49.7438C0.440669 46.0688 1.03501 39.4563 5.29497 36.5432C7.37348 35.1183 9.8853 33.5588 12.7657 31.9117L12.7856 31.8988L12.8122 31.8826C13.1077 31.7204 13.4463 31.5227 13.7817 31.3363L14.3395 31.025C14.3596 31.0121 14.3807 31.0007 14.4026 30.991C14.7042 30.8357 15.0566 30.8039 15.3822 30.9024C15.7079 31.0009 15.9802 31.2217 16.1391 31.5162C16.2981 31.8107 16.3307 32.1548 16.2298 32.4728C16.1289 32.7908 15.9028 33.0566 15.6012 33.2119L15.0567 33.5166C14.7379 33.6933 14.4175 33.8716 14.1386 34.0338L14.1154 34.0483L14.0838 34.0662C11.2616 35.6873 8.80454 37.2095 6.77915 38.6052C3.35756 40.9461 3.02719 47.1743 3.04379 49.7421V60.9196C3.0361 62.5474 3.59637 64.1291 4.63232 65.4044C5.66827 66.6797 7.11813 67.5725 8.74311 67.9357L21.6707 69.4903C21.9977 69.5267 22.298 69.6842 22.5095 69.9303C22.7211 70.1765 22.8279 70.4925 22.8079 70.8133C22.7879 71.134 22.6426 71.4351 22.402 71.6543C22.1614 71.8736 21.8438 71.9943 21.5147 71.9917V71.9949ZM45.8493 45.644C45.5207 45.6441 45.2046 45.521 44.9661 45.3002C44.7277 45.0795 44.5851 44.7778 44.5676 44.4574C44.4298 41.969 44.3003 39.62 41.5943 37.8239C40.5982 37.1754 39.2435 36.3843 37.5584 35.496C36.2851 34.8281 34.8507 34.1116 33.5226 33.4761C33.2164 33.3299 32.9822 33.0709 32.8715 32.7561C32.7608 32.4413 32.7827 32.0965 32.9324 31.7975C33.0821 31.4984 33.3473 31.2697 33.6697 31.1616C33.9921 31.0536 34.3453 31.075 34.6515 31.2212C36.0079 31.8696 37.4738 32.6023 38.777 33.2848C40.5401 34.2153 41.9728 35.0437 43.037 35.7472C46.7989 38.2421 46.9848 41.614 47.1342 44.3228C47.1432 44.4874 47.1189 44.6521 47.0626 44.8075C47.0064 44.9628 46.9194 45.1059 46.8065 45.2284C46.6937 45.351 46.5572 45.4506 46.4049 45.5216C46.2526 45.5926 46.0875 45.6337 45.919 45.6424L45.8493 45.644Z" fill="#d8b572"/>
<path d="M26.5879 32.0835C24.5518 32.0648 22.5457 31.6023 20.716 30.7299C18.7603 29.8156 16.5938 28.235 16.3796 26.541C16.2584 25.4872 16.0816 24.4402 15.85 23.4042C15.85 23.3815 15.8384 23.3588 15.8351 23.3377C15.5911 22.0911 15.337 19.8475 16.3647 18.8294C16.5738 18.6226 16.8307 18.4676 17.1138 18.3777C17.3968 18.2877 17.6979 18.2653 17.9916 18.3123L18.5777 18.3707C18.4532 18.1696 18.317 17.9573 18.1975 17.7725C17.5467 16.7625 16.7382 15.5029 16.4842 14.1769C16.0841 12.0841 16.4494 10.1987 17.4803 9.00722C18.0879 8.30853 18.8732 7.93244 19.685 7.95189C20.3159 7.96486 20.7923 8.29718 21.297 8.64734C22.162 9.24877 23.4702 10.1566 26.2775 10.1809C28.8706 10.2052 29.6459 9.56812 30.2735 9.05748C30.901 8.54683 31.8041 7.81248 33.5456 8.36041C34.1988 8.57079 34.7821 8.94871 35.2345 9.45462C35.6869 9.96054 35.9918 10.5759 36.1172 11.2362C37.0204 15.7964 38.4414 26.8085 32.2142 30.5807C30.5193 31.585 28.5703 32.1056 26.5879 32.0835ZM18.3552 22.8433C18.607 23.9643 18.7993 25.0974 18.9313 26.2378C19.011 26.5799 20.1233 27.7941 22.3811 28.7132C23.8287 29.3033 27.5492 30.4559 30.8595 28.4539C35.8715 25.4208 34.2197 14.8788 33.5938 11.7193C33.5562 11.501 33.4593 11.2966 33.3134 11.1272C33.1674 10.9579 32.9776 10.8298 32.7637 10.7564C32.3686 10.6316 32.3686 10.6316 31.9336 10.9931C30.8545 11.8701 29.5297 12.7228 26.2708 12.6968C22.6517 12.666 20.8106 11.387 19.8211 10.6996C19.7381 10.6429 19.6452 10.5781 19.5638 10.5246C19.2517 10.7758 18.6491 11.7971 19.0176 13.723C19.1836 14.5805 19.8195 15.5694 20.3806 16.4416C20.9417 17.3137 21.3867 18.0027 21.4946 18.7111C21.5386 18.9953 21.5189 19.2855 21.4367 19.5615C21.3545 19.8376 21.2118 20.0929 21.0185 20.3097C20.8252 20.5265 20.5859 20.6997 20.3172 20.8172C20.0485 20.9347 19.7569 20.9938 19.4625 20.9903H19.3496L18.2124 20.8785C18.1851 21.5344 18.233 22.1913 18.3552 22.8368V22.8433ZM22.8277 62.1694H22.7912C22.6218 62.1648 22.4551 62.1275 22.3005 62.0597C22.146 61.992 22.0067 61.895 21.8907 61.7745C21.7746 61.654 21.6842 61.5122 21.6245 61.3574C21.5647 61.2026 21.537 61.0378 21.5427 60.8725C21.6041 58.7764 22.1105 56.3885 22.6467 53.8596C23.3357 50.6175 24.0462 47.2667 23.6876 44.8237L21.2538 41.0498C21.072 40.7682 21.0122 40.4275 21.0875 40.1029C21.1629 39.7782 21.3672 39.496 21.6556 39.3184C21.944 39.1409 22.2928 39.0824 22.6253 39.156C22.9578 39.2296 23.2468 39.4291 23.4286 39.7107L26.0036 43.7148C26.0921 43.853 26.1525 44.0066 26.1812 44.1671C26.7108 47.1013 25.9239 50.8023 25.1652 54.38C24.6522 56.7971 24.1691 59.0812 24.1126 60.9536C24.1019 61.2794 23.9618 61.5884 23.722 61.8153C23.4823 62.0421 23.1615 62.1691 22.8277 62.1694ZM30.2951 48.724C30.0181 48.7237 29.7486 48.6362 29.5267 48.4744C29.3047 48.3126 29.1422 48.0852 29.0632 47.8259C28.6965 46.6063 28.2393 45.4143 27.6953 44.2595C27.5593 43.9756 27.5374 43.6523 27.6338 43.3533L28.9902 39.1498C29.0409 38.9926 29.1228 38.8467 29.2312 38.7204C29.3397 38.5941 29.4725 38.4899 29.6222 38.4137C29.7719 38.3375 29.9355 38.2909 30.1036 38.2765C30.2718 38.262 30.4412 38.2801 30.6022 38.3296C30.7632 38.3791 30.9126 38.459 31.042 38.5649C31.1713 38.6708 31.2781 38.8006 31.3561 38.9467C31.4341 39.0929 31.4818 39.2526 31.4966 39.4168C31.5114 39.581 31.4929 39.7464 31.4422 39.9036L30.2336 43.65C30.7428 44.7781 31.1776 45.9368 31.5352 47.1191C31.5913 47.3065 31.602 47.5041 31.5665 47.6962C31.531 47.8883 31.4503 48.0698 31.3306 48.2262C31.211 48.3826 31.0558 48.5097 30.8772 48.5975C30.6987 48.6854 30.5016 48.7314 30.3017 48.7321L30.2951 48.724ZM26.1032 38.0102C25.8904 38.01 25.681 37.9582 25.4939 37.8595L25.0606 37.6309C24.9238 37.5707 24.799 37.4872 24.692 37.3845C24.4725 37.1719 24.3386 36.8893 24.3148 36.5883C24.291 36.2873 24.3788 35.988 24.5622 35.745C24.7457 35.502 25.0125 35.3315 25.314 35.2646C25.6154 35.1977 25.9315 35.239 26.2044 35.3808L26.7158 35.6499C26.967 35.7832 27.1657 35.9944 27.2803 36.2502C27.3949 36.506 27.419 36.7918 27.3488 37.0625C27.2785 37.3332 27.1179 37.5733 26.8924 37.7449C26.6668 37.9165 26.3891 38.0099 26.1032 38.0102Z" fill="#d8b572"/>
<path d="M20.2765 43.6274C19.7093 43.6274 19.1653 43.4076 18.7641 43.0162C17.8493 42.1278 15.1848 36.1736 13.6773 32.7028C13.5704 32.4568 13.5467 32.1838 13.6097 31.9237C13.6727 31.6636 13.8191 31.43 14.0276 31.2568L17.1056 28.7019C17.2614 28.5722 17.4468 28.4807 17.6462 28.4352C17.8456 28.3897 18.0533 28.3915 18.2519 28.4403C18.4505 28.4892 18.6342 28.5838 18.7877 28.7162C18.9412 28.8485 19.06 29.0149 19.1343 29.2012C19.1708 29.2872 21.2327 34.2266 25.8795 35.2658C26.0926 35.3134 26.2898 35.4133 26.4523 35.556C26.6148 35.6988 26.7374 35.8796 26.8084 36.0815C26.8793 36.2835 26.8964 36.4997 26.8579 36.7098C26.8194 36.92 26.7266 37.117 26.5884 37.2824L22.0346 42.7422C21.8576 42.9861 21.6294 43.1901 21.3651 43.3408C21.1008 43.4915 20.8067 43.5854 20.5022 43.616C20.4259 43.6225 20.3512 43.6274 20.2765 43.6274ZM16.4149 32.5699C17.9091 35.9742 19.5692 39.5276 20.318 40.8245L23.4225 37.096C20.3694 35.7796 18.4835 33.2734 17.5223 31.6442L16.4149 32.5699Z" fill="#d8b572"/>
<path d="M31.701 41.4712C31.1879 41.4709 30.6918 41.2922 30.3015 40.9671L25.0969 37.5174C24.8878 37.38 24.7247 37.1856 24.6277 36.9585C24.5308 36.7314 24.5042 36.4815 24.5515 36.2398C24.5987 35.998 24.7175 35.7752 24.8933 35.5989C25.069 35.4225 25.294 35.3005 25.5401 35.2478C29.5328 34.3822 29.4797 30.9163 29.4747 30.7688C29.4695 30.5535 29.5211 30.3405 29.6246 30.1504C29.728 29.9602 29.8799 29.7993 30.0655 29.683C30.2511 29.5667 30.4642 29.4991 30.6844 29.4865C30.9045 29.474 31.1243 29.5169 31.3225 29.6113L35.0844 31.4285C35.2595 31.5128 35.4127 31.635 35.5321 31.7859C35.6515 31.9368 35.734 32.1123 35.7733 32.2991C36.3727 35.1311 34.7623 38.9877 33.3694 40.6834C33.1826 40.9113 32.949 41.0985 32.6837 41.2331C32.4184 41.3676 32.1272 41.4465 31.8288 41.4647L31.701 41.4712ZM28.5467 36.77L31.6014 38.7948C32.4879 37.5222 33.4275 35.149 33.3279 33.3771L31.769 32.6249C31.2859 34.3636 30.1307 35.8513 28.5467 36.7749V36.77ZM12.4432 78.8245C12.2743 78.8245 12.1071 78.792 11.951 78.7288C11.795 78.6656 11.6533 78.5731 11.534 78.4564C11.4146 78.3397 11.32 78.2012 11.2555 78.0488C11.1911 77.8964 11.158 77.733 11.1582 77.5681V69.641C11.1582 69.3082 11.2936 68.989 11.5346 68.7537C11.7755 68.5184 12.1024 68.3862 12.4432 68.3862C12.784 68.3862 13.1108 68.5184 13.3518 68.7537C13.5927 68.989 13.7281 69.3082 13.7281 69.641V77.5681C13.7283 77.733 13.6953 77.8964 13.6308 78.0488C13.5663 78.2012 13.4717 78.3397 13.3524 78.4564C13.233 78.5731 13.0913 78.6656 12.9353 78.7288C12.7793 78.792 12.612 78.8245 12.4432 78.8245Z" fill="#d8b572"/>
</svg>
