<svg width="77" height="77" viewBox="0 0 77 77" fill="none" xmlns="http://www.w3.org/2000/svg">
<path d="M38.3063 52.7451C37.9815 52.7451 37.7168 52.4804 37.7168 52.1555V47.0302C37.7168 46.7054 37.9815 46.4407 38.3063 46.4407C38.6312 46.4407 38.8959 46.7054 38.8959 47.0302V52.1555C38.9079 52.4804 38.6432 52.7451 38.3063 52.7451ZM57.2315 52.7451C56.9066 52.7451 56.642 52.4804 56.642 52.1555V47.0302C56.642 46.7054 56.9066 46.4407 57.2315 46.4407C57.5563 46.4407 57.821 46.7054 57.821 47.0302V52.1555C57.821 52.4804 57.5563 52.7451 57.2315 52.7451Z" fill="#d8b572"/>
<path d="M76.2301 16.6393H61.1188C60.794 16.6393 60.5293 16.3746 60.5293 16.0498V0.589607C60.5293 0.348982 60.6737 0.13242 60.9023 0.0361695C61.1309 -0.0600805 61.3835 7.57677e-05 61.552 0.168513L76.6632 15.6166C76.8316 15.7851 76.8798 16.0377 76.7835 16.2663C76.6873 16.4949 76.4707 16.6393 76.2301 16.6393ZM61.7084 15.4482H74.8224L61.7084 2.04539V15.4482Z" fill="#d8b572"/>
<path d="M19.2979 10.792C18.973 10.792 18.7083 10.5273 18.7083 10.2025V3.17625C18.7083 1.43172 20.128 0 21.8846 0H61.1185C61.4433 0 61.708 0.264688 61.708 0.589531C61.708 0.914375 61.4433 1.17906 61.1185 1.17906H21.8725C20.7777 1.17906 19.8874 2.06938 19.8874 3.16422V10.2025C19.8874 10.5273 19.6227 10.792 19.2979 10.792ZM73.6671 77H21.8725C20.128 77 18.6963 75.5803 18.6963 73.8238V40.4611C18.6963 40.1362 18.961 39.8716 19.2858 39.8716C19.6107 39.8716 19.8754 40.1362 19.8754 40.4611V73.8238C19.8754 74.9186 20.7657 75.8089 21.8605 75.8089H73.643C74.7379 75.8089 75.6282 74.9186 75.6282 73.8238V16.0377C75.6282 15.7128 75.8928 15.4481 76.2177 15.4481C76.5425 15.4481 76.8072 15.7128 76.8072 16.0377V73.8358C76.8313 75.5803 75.4116 77 73.6671 77Z" fill="#d8b572"/>
<path d="M16.2056 41.3754C7.36266 41.3754 0.167969 34.1807 0.167969 25.3377C0.167969 16.4947 7.36266 9.30005 16.2056 9.30005C25.0486 9.30005 32.2433 16.4947 32.2433 25.3377C32.2433 34.1807 25.0486 41.3754 16.2056 41.3754ZM16.2056 10.4791C8.01234 10.4791 1.34703 17.1444 1.34703 25.3377C1.34703 33.531 8.01234 40.1963 16.2056 40.1963C24.3989 40.1963 31.0642 33.531 31.0642 25.3377C31.0642 17.1444 24.3989 10.4791 16.2056 10.4791ZM47.6192 30.9683C43.0594 30.9683 39.3417 27.2507 39.3417 22.6908L39.462 18.7927C39.5102 17.2286 40.0395 15.7969 40.9539 14.7622C41.2427 14.4374 41.5555 14.1486 41.9044 13.896C42.9511 13.126 44.2866 12.741 45.7664 12.8132C47.1861 12.8733 48.317 12.6929 48.9547 12.3079C50.8797 11.4897 52.4919 11.5018 53.707 12.2718C55.0545 13.138 55.8125 14.8946 55.8847 17.361C55.8847 17.373 55.8847 17.373 55.8847 17.385V22.7029C55.8967 27.2627 52.1791 30.9683 47.6192 30.9683ZM45.4536 13.9922C44.6355 13.9922 43.5406 14.1607 42.6022 14.8585C42.3255 15.063 42.0728 15.2916 41.8442 15.5563C41.1223 16.3865 40.6892 17.5415 40.6531 18.8408L40.5328 22.7149C40.5328 26.601 43.7091 29.7893 47.6192 29.7893C51.5294 29.7893 54.7056 26.613 54.7056 22.7029V17.3971C54.6334 15.3397 54.068 13.92 53.0694 13.2704C51.9745 12.5605 50.5187 12.9335 49.4961 13.3546C48.5095 13.9682 46.8853 14.0524 45.7183 13.9922C45.6341 13.9922 45.5498 13.9922 45.4536 13.9922Z" fill="#d8b572"/>
<path d="M40.063 19.4065C39.7622 19.4065 39.5095 19.1899 39.4734 18.8891L39.0403 15.2677C38.9561 14.4977 38.6553 13.848 38.1981 13.4269C37.8973 13.1502 37.5605 12.9457 37.1634 12.8254C37.007 12.7772 36.8747 12.669 36.8145 12.5246C36.7423 12.3802 36.7303 12.2118 36.7905 12.0554C37.9575 8.91521 40.1472 6.74959 42.9745 5.95552C46.0786 5.07724 49.7481 5.94349 52.8281 8.26552C54.332 7.95271 55.2584 8.57834 55.7638 9.16787C57.3398 11.0086 57.0391 14.9188 55.8359 17.6379C55.7036 17.9386 55.3547 18.071 55.0539 17.9386C54.7531 17.8063 54.6208 17.4574 54.7531 17.1566C55.9202 14.5338 55.9683 11.2252 54.8614 9.93787C54.3922 9.38443 53.7305 9.22802 52.8402 9.46865C52.6597 9.51677 52.4672 9.48068 52.3228 9.36037C49.4955 7.13459 46.1147 6.2924 43.2994 7.08646C40.9773 7.74818 39.1967 9.40849 38.1139 11.9351C38.4388 12.1035 38.7395 12.308 39.0042 12.5607C39.8464 13.3427 40.1231 14.3894 40.2073 15.1354L40.6405 18.7568C40.6766 19.0816 40.448 19.3704 40.1231 19.4185C40.0991 19.4065 40.087 19.4065 40.063 19.4065ZM47.775 36.0938C45.7778 36.0938 44.1536 34.4696 44.1536 32.4844V29.8255C44.1536 29.5007 44.4183 29.236 44.7431 29.236C45.068 29.236 45.3327 29.5007 45.3327 29.8255V32.4844C45.3327 33.8199 46.4275 34.9147 47.763 34.9147C49.0984 34.9147 50.1933 33.8199 50.1933 32.4844V29.8255C50.1933 29.5007 50.458 29.236 50.7828 29.236C51.1077 29.236 51.3723 29.5007 51.3723 29.8255V32.4844C51.3844 34.4696 49.7602 36.0938 47.775 36.0938Z" fill="#d8b572"/>
<path d="M60.3364 52.745H35.2032C33.5669 52.745 32.2314 51.4095 32.2314 49.7733V39.6309C32.2314 35.3598 35.7085 31.8828 39.9796 31.8828H44.7439C45.0688 31.8828 45.3335 32.1475 45.3335 32.4723C45.3335 32.7972 45.0688 33.0619 44.7439 33.0619H39.9796C36.3582 33.0619 33.4225 36.0095 33.4225 39.6189V49.7612C33.4225 50.7478 34.2286 51.5419 35.2032 51.5419H60.3364C61.323 51.5419 62.1171 50.7358 62.1171 49.7612V39.6189C62.1171 35.9975 59.1694 33.0619 55.56 33.0619H50.7957C50.4708 33.0619 50.2061 32.7972 50.2061 32.4723C50.2061 32.1475 50.4708 31.8828 50.7957 31.8828H55.56C59.8311 31.8828 63.3082 35.3598 63.3082 39.6309V49.7733C63.3082 51.4095 61.9727 52.745 60.3364 52.745Z" fill="#d8b572"/>
<path d="M12.7774 31.1851C12.621 31.1851 12.4766 31.125 12.3563 31.0167L8.69879 27.3592C8.4702 27.1306 8.4702 26.7576 8.69879 26.517C8.92738 26.2884 9.30035 26.2884 9.54098 26.517L12.7774 29.7534L22.8596 19.6712C23.0882 19.4426 23.4611 19.4426 23.7018 19.6712C23.9304 19.8998 23.9304 20.2728 23.7018 20.5134L13.1985 31.0167C13.0902 31.125 12.9338 31.1851 12.7774 31.1851Z" fill="#d8b572"/>
</svg>
