<svg width="80" height="77" viewBox="0 0 80 77" fill="none" xmlns="http://www.w3.org/2000/svg">
<path d="M72.0322 74.9409H53.7812V76.5137H72.0322V74.9409Z" fill="#d8b572"/>
<path d="M51.2015 74.9409H47.4688V76.5137H51.2015V74.9409Z" fill="#d8b572"/>
<path d="M23.1019 42.4173C21.5898 42.0074 20.0214 41.7874 18.4258 41.7874C8.71644 41.7873 0.817383 49.5763 0.817383 59.1504C0.817383 68.7244 8.71644 76.5138 18.4257 76.5138C22.5188 76.5138 26.2869 75.1256 29.2803 72.807H79.2987V0.486328H23.1019V42.4173ZM18.4257 74.9411C9.59601 74.9411 2.41227 67.8575 2.41227 59.1504C2.41227 50.4437 9.59601 43.36 18.4257 43.36C21.5933 43.36 24.6555 44.2704 27.2811 45.9921C31.7633 48.9313 34.4392 53.8502 34.4392 59.1504C34.4392 67.8574 27.2554 74.9411 18.4257 74.9411ZM33.1177 49.5877V48.4536H39.7127V54.595H35.4135C34.9224 52.8105 34.1458 51.1225 33.1177 49.5877ZM36.017 59.8165H39.7126V65.958H34.6227C35.4463 64.0598 35.9334 61.9884 36.017 59.8165ZM24.6968 2.05907H77.7037V71.2343H31.0527C32.1395 70.1304 33.0801 68.8865 33.8411 67.5307H41.3075V58.2438H36.0056C35.9688 57.543 35.8884 56.8503 35.7682 56.1677H41.3076V46.8809H31.5228V47.5443C30.5419 46.4692 29.4183 45.5049 28.1644 44.6827C27.0709 43.9655 25.9081 43.3776 24.6969 42.9223L24.6968 2.05907Z" fill="#d8b572"/>
<path d="M74.7225 5.00366H27.6809V19.8978H74.7225V5.00366ZM73.1276 18.3251H29.2758V6.57633H73.1276V18.3251ZM46.3106 67.5341H56.0927V58.2446H46.3106V67.5341ZM47.9056 59.8172H54.4978V65.9614H47.9056V59.8172ZM61.0952 67.5341H70.8777V58.2446H61.0952V67.5341ZM62.6901 59.8172H69.2827V65.9614H62.6901V59.8172ZM46.3106 56.1681H56.0927V46.8786H46.3106V56.1681ZM47.9056 48.4513H54.4978V54.5954H47.9056V48.4513ZM61.0952 56.1681H70.8777V46.8786H61.0952V56.1681ZM62.6901 48.4513H69.2827V54.5954H62.6901V48.4513ZM31.5257 44.8018H41.3082V35.5127H31.5257V44.8018ZM33.1206 37.0853H39.7133V43.229H33.1206V37.0853ZM46.3106 44.8018H56.0927V35.5127H46.3106V44.8018ZM47.9056 37.0853H54.4978V43.229H47.9056V37.0853ZM61.0952 44.8018H70.8777V35.5127H61.0952V44.8018ZM62.6901 37.0853H69.2827V43.229H62.6901V37.0853ZM31.5257 33.4358H41.3082V24.1463H31.5257V33.4358ZM33.1206 25.719H39.7133V31.8631H33.1206V25.719ZM46.3106 33.4358H56.0927V24.1463H46.3106V33.4358ZM47.9056 25.719H54.4978V31.8631H47.9056V25.719ZM61.0952 33.4358H70.8777V24.1463H61.0952V33.4358ZM62.6901 25.719H69.2827V31.8631H62.6901V25.719ZM4.83529 45.7851C7.00219 43.6434 9.68077 42.0268 12.5825 41.1104L12.0957 39.6129C8.95302 40.6054 6.05166 42.3559 3.70605 44.6746L4.83529 45.7851ZM14.839 40.5459C16.0141 40.3259 17.2209 40.2146 18.426 40.2146V38.6419C17.1215 38.6419 15.8143 38.7629 14.5415 39.0009L14.839 40.5459ZM19.1121 49.895L10.3969 68.4057H17.3704L26.0856 49.895H19.1121ZM16.3525 66.8329H12.896L20.13 51.4677H23.5865L16.3525 66.8329ZM14.4609 54.6684C14.4609 52.6265 12.7764 50.9651 10.7056 50.9651C8.63484 50.9651 6.94995 52.6265 6.94995 54.6684C6.94995 56.7103 8.63484 58.3713 10.7056 58.3713C12.7764 58.3713 14.4609 56.7103 14.4609 54.6684ZM8.545 54.6684C8.545 53.4935 9.51416 52.5378 10.7057 52.5378C11.8968 52.5378 12.866 53.4935 12.866 54.6684C12.866 55.8429 11.8968 56.7986 10.7057 56.7986C9.51416 56.7986 8.545 55.8429 8.545 54.6684ZM26.1463 59.9294C24.0755 59.9294 22.3911 61.5908 22.3911 63.6326C22.3911 65.6745 24.0755 67.336 26.1463 67.336C28.2171 67.336 29.902 65.6745 29.902 63.6326C29.902 61.5907 28.2171 59.9294 26.1463 59.9294ZM26.1463 65.7633C24.9552 65.7633 23.986 64.8076 23.986 63.6327C23.986 62.4578 24.9552 61.5021 26.1463 61.5021C27.3378 61.5021 28.307 62.4578 28.307 63.6327C28.307 64.8076 27.3378 65.7633 26.1463 65.7633Z" fill="#d8b572"/>
<path d="M19.7678 17.5182H18.1729V35.502H19.7678V17.5182Z" fill="#d8b572"/>
<path d="M19.7678 10.1713H18.1729V14.3518H19.7678V10.1713Z" fill="#d8b572"/>
<path d="M55.8372 8.26318H54.2422V16.638H55.8372V8.26318Z" fill="#d8b572"/>
<path d="M60.5862 8.26318H58.9912V16.638H60.5862V8.26318Z" fill="#d8b572"/>
<path d="M65.3372 8.26318H63.7422V16.638H65.3372V8.26318Z" fill="#d8b572"/>
<path d="M70.0872 8.26318H68.4922V16.638H70.0872V8.26318Z" fill="#d8b572"/>
</svg>
