<svg width="71" height="78" viewBox="0 0 71 78" fill="none" xmlns="http://www.w3.org/2000/svg">
<path d="M61.1813 73.125C61.1813 73.556 61.0123 73.9693 60.7115 74.274C60.4106 74.5788 60.0026 74.75 59.5771 74.75H11.4521C11.0267 74.75 10.6187 74.5788 10.3178 74.274C10.017 73.9693 9.84798 73.556 9.84798 73.125V66.625H6.63965V73.125C6.63965 74.4179 7.14668 75.6579 8.0492 76.5721C8.95172 77.4864 10.1758 78 11.4521 78H59.5771C60.8535 78 62.0776 77.4864 62.9801 76.5721C63.8826 75.6579 64.3896 74.4179 64.3896 73.125V71.5H61.1813V73.125ZM9.84798 4.875C9.84798 4.44402 10.017 4.0307 10.3178 3.72595C10.6187 3.4212 11.0267 3.25 11.4521 3.25H46.7438V13C46.7438 14.2929 47.2508 15.5329 48.1534 16.4471C49.0559 17.3614 50.28 17.875 51.5563 17.875H61.1813V22.75H64.3896V16.25C64.3896 16.2143 64.372 16.1834 64.3688 16.1476C64.3608 16.0052 64.3333 15.8647 64.287 15.73C64.2693 15.678 64.2565 15.6276 64.234 15.5773C64.1565 15.4002 64.0477 15.2388 63.9132 15.1011L49.4757 0.476125C49.3363 0.338865 49.1732 0.228705 48.9945 0.151125C48.9479 0.13 48.903 0.117 48.8565 0.10075C48.7165 0.0505475 48.5701 0.0209952 48.4218 0.013C48.4057 0.01625 48.3785 0 48.348 0H11.4521C10.1758 0 8.95172 0.513615 8.0492 1.42785C7.14668 2.34209 6.63965 3.58207 6.63965 4.875V32.5H9.84798V4.875ZM58.913 14.625H51.5563C51.1309 14.625 50.7228 14.4538 50.422 14.149C50.1212 13.8443 49.9521 13.431 49.9521 13V5.54775L58.913 14.625Z" fill="#d8b572"/>
<path d="M16.2646 9.75H19.473V13H16.2646V9.75ZM22.6813 9.75H29.098V13H22.6813V9.75ZM16.2646 16.25H29.098V19.5H16.2646V16.25ZM67.598 26H46.7438C45.8929 26 45.0769 26.3424 44.4752 26.9519C43.8735 27.5614 43.5355 28.388 43.5355 29.25V39C43.5387 39.5722 43.6926 40.1332 43.9814 40.625C43.6926 41.1168 43.5387 41.6778 43.5355 42.25V45.5H32.3063V48.75H43.5355V52H30.7021V55.25H43.5355V58.5H29.098V61.75H43.5355V65H19.473C19.473 65.862 19.811 66.6886 20.4127 67.2981C21.0144 67.9076 21.8304 68.25 22.6813 68.25H43.5355C44.1004 68.2467 44.6542 68.0908 45.1396 67.7982C45.6251 68.0908 46.1789 68.2467 46.7438 68.25H67.598C68.4489 68.25 69.2649 67.9076 69.8666 67.2981C70.4683 66.6886 70.8063 65.862 70.8063 65V55.25C70.8031 54.6778 70.6492 54.1168 70.3604 53.625C70.6492 53.1332 70.8031 52.5722 70.8063 52V42.25C70.8031 41.6778 70.6492 41.1168 70.3604 40.625C70.6492 40.1332 70.8031 39.5722 70.8063 39V29.25C70.8063 28.388 70.4683 27.5614 69.8666 26.9519C69.2649 26.3424 68.4489 26 67.598 26ZM67.598 58.5H46.7438V55.25H67.598V58.5ZM46.7438 52V48.75H67.598V52H46.7438ZM67.598 45.5H46.7438V42.25H67.598V45.5ZM46.7438 39V35.75H67.598V39H46.7438ZM46.7438 29.25H67.598V32.5H46.7438V29.25ZM67.598 65H46.7438V61.75H67.598V65Z" fill="#d8b572"/>
<path d="M29.0977 50.375C29.0977 47.4825 28.2509 44.6549 26.6645 42.2498C25.0781 39.8447 22.8233 37.9702 20.1852 36.8633C17.547 35.7563 14.6441 35.4667 11.8435 36.031C9.04295 36.5953 6.47043 37.9882 4.45131 40.0336C2.43219 42.0789 1.05715 44.6848 0.500075 47.5218C-0.0569988 50.3588 0.228912 53.2994 1.32165 55.9718C2.41439 58.6441 4.26488 60.9282 6.63912 62.5353C9.01335 64.1423 11.8047 65 14.6602 65C18.4879 64.9957 22.1577 63.4535 24.8643 60.7117C27.571 57.9699 29.0934 54.2525 29.0977 50.375ZM3.431 50.375C3.431 48.1252 4.08958 45.926 5.32345 44.0554C6.55733 42.1848 8.31108 40.7268 10.3629 39.8659C12.4148 39.0049 14.6726 38.7797 16.8509 39.2186C19.0291 39.6575 21.03 40.7408 22.6004 42.3317C24.1708 43.9225 25.2403 45.9493 25.6736 48.1559C26.1068 50.3624 25.8845 52.6495 25.0346 54.728C24.1847 56.8065 22.7454 58.5831 20.8988 59.833C19.0521 61.0829 16.8811 61.75 14.6602 61.75C11.683 61.7466 8.82884 60.547 6.72369 58.4146C4.61855 56.2821 3.43439 53.3908 3.431 50.375Z" fill="#d8b572"/>
<path d="M16.265 60.125V58.5H17.8691C18.72 58.5 19.5361 58.1576 20.1378 57.5481C20.7395 56.9386 21.0775 56.112 21.0775 55.25V52C21.0775 51.138 20.7395 50.3114 20.1378 49.7019C19.5361 49.0924 18.72 48.75 17.8691 48.75H11.4525V45.5H17.8691V47.125H21.0775V45.5C21.0775 44.638 20.7395 43.8114 20.1378 43.2019C19.5361 42.5924 18.72 42.25 17.8691 42.25H16.265V40.625H13.0566V42.25H11.4525C10.6016 42.25 9.78552 42.5924 9.18384 43.2019C8.58216 43.8114 8.24414 44.638 8.24414 45.5V48.75C8.24414 49.612 8.58216 50.4386 9.18384 51.0481C9.78552 51.6576 10.6016 52 11.4525 52H17.8691V55.25H11.4525V53.625H8.24414V55.25C8.24414 56.112 8.58216 56.9386 9.18384 57.5481C9.78552 58.1576 10.6016 58.5 11.4525 58.5H13.0566V60.125H16.265Z" fill="#d8b572"/>
</svg>
