<svg width="67" height="75" viewBox="0 0 67 75" fill="none" xmlns="http://www.w3.org/2000/svg">
<path d="M0.015625 74.7969H43.8214L54.1562 64.462V0.203125H0.015625V74.7969ZM44.5312 70.6942V65.1719H50.0536L44.5312 70.6942ZM2.42188 2.60938H51.75V62.7656H42.125V72.3906H2.42188V2.60938ZM13.25 33.8906H10.8438V25.4688H13.25V33.8906ZM19.2656 33.8906H16.8594V14.6406H19.2656V33.8906ZM25.2812 33.8906H22.875V19.4531H25.2812V33.8906ZM31.2969 33.8906H28.8906V7.42188H31.2969V33.8906ZM37.3125 33.8906H34.9062V11.0312H37.3125V33.8906ZM43.3281 33.8906H40.9219V19.4531H43.3281V33.8906ZM27.5912 47.125H27.6875V45.9219C27.6875 43.6883 26.8002 41.5461 25.2208 39.9667C23.6414 38.3873 21.4992 37.5 19.2656 37.5H18.0625V37.5963C16.5142 37.8175 15.0582 38.4656 13.8575 39.4678C12.6568 40.47 11.7588 41.7867 11.2643 43.2704C10.7698 44.7542 10.6982 46.3463 11.0576 47.8685C11.4169 49.3906 12.193 50.7827 13.2989 51.8886C14.4048 52.9945 15.7969 53.7706 17.319 54.13C18.8412 54.4893 20.4333 54.4177 21.9171 53.9232C23.4008 53.4287 24.7175 52.5307 25.7197 51.33C26.7219 50.1293 27.37 48.6733 27.5912 47.125ZM19.2656 51.9375C17.7738 51.939 16.3347 51.3861 15.2275 50.3862C14.1204 49.3863 13.4243 48.0107 13.2744 46.5264C13.1245 45.0422 13.5314 43.5551 14.4162 42.354C15.301 41.1529 16.6005 40.3234 18.0625 40.0266V47.125H25.1609C24.8836 48.4838 24.1453 49.705 23.071 50.5819C21.9967 51.4589 20.6524 51.9378 19.2656 51.9375ZM20.4688 44.7188V40.0266C20.8049 40.1013 21.1347 40.2018 21.4553 40.3273L21.7441 40.4597C21.9774 40.5675 22.2026 40.6921 22.4178 40.8327L22.6825 41.0011C23.2478 41.3991 23.7403 41.8916 24.1383 42.4569L24.3067 42.7216C24.4472 42.9368 24.5719 43.162 24.6797 43.3953C24.7188 43.4938 24.763 43.5902 24.812 43.6841C24.9375 44.0047 25.0381 44.3345 25.1128 44.6706H20.4688V44.7188ZM30.0938 37.5H43.3281V39.9062H30.0938V37.5ZM30.0938 43.5156H43.3281V45.9219H30.0938V43.5156ZM43.3281 51.9375H30.0938V49.5312H43.3281V51.9375ZM10.8438 63.9688H18.0625V56.75H10.8438V63.9688ZM13.25 59.1562H15.6562V61.5625H13.25V59.1562ZM21.6719 63.9688H28.8906V56.75H21.6719V63.9688ZM24.0781 59.1562H26.4844V61.5625H24.0781V59.1562ZM32.5 63.9688H39.7188V56.75H32.5V63.9688ZM34.9062 59.1562H37.3125V61.5625H34.9062V59.1562ZM58.9688 7.42188V60.3594C59.1613 64.1252 60.2922 67.5781 62.5781 67.5781C64.8641 67.5781 65.9589 64.1252 66.1875 60.3594V7.42188H58.9688ZM62.5781 65.0636C61.7943 63.6191 61.3809 62.0028 61.375 60.3594H63.7812C63.7754 62.0028 63.362 63.6191 62.5781 65.0636ZM63.7812 57.9531H61.375V15.8438H63.7812V57.9531ZM63.7812 13.4375H61.375V9.82812H63.7812V13.4375Z" fill="#d8b572"/>
</svg>
