<svg width="58" height="76" viewBox="0 0 58 76" fill="none" xmlns="http://www.w3.org/2000/svg">
<path d="M10.5278 46.1266H33.9516V50.7574H44.0674V21.7843H10.5278V46.1266ZM35.3925 23.2729H42.6265V27.5352H35.3925V23.2729ZM35.3925 29.0238H42.6265V33.2112H35.3925V29.0238ZM35.3925 34.6998H42.6265V39.1859H35.3925V34.6998ZM35.3925 40.6745H42.6265V44.6381H35.3925V40.6745ZM35.3925 46.1267H42.6265V49.2688H35.3925V46.1267ZM27.6329 23.2729H33.9516V27.5352H27.6329V23.2729ZM27.6329 29.0238H33.9516V33.2112H27.6329V29.0238ZM27.6329 34.6998H33.9516V39.1859H27.6329V34.6998ZM27.6329 40.6745H33.9516V44.6381H27.6329V40.6745ZM11.9687 23.2729H26.1919V27.5352H11.9687V23.2729ZM11.9687 29.0238H26.1919V33.2112H11.9687V29.0238ZM11.9687 34.6998H26.1919V39.1859H11.9687V34.6998ZM11.9687 40.6745H26.1919V44.6381H11.9687V40.6745ZM26.9124 16.8555H16.8149V15.3669H26.9124L26.9124 16.8555ZM10.0311 62.2555C10.0315 62.5889 10.1598 62.9085 10.388 63.1443C10.6162 63.38 10.9256 63.5126 11.2483 63.513C11.8896 63.5112 12.5098 63.7497 12.994 64.1842C13.4781 64.6188 13.7934 65.2199 13.8813 65.8762C13.9693 66.5325 13.824 67.1995 13.4723 67.7536C13.1206 68.3077 12.5864 68.7113 11.9687 68.8896V69.8947H10.5278V68.8896C9.97183 68.7286 9.48182 68.3846 9.13214 67.9099C8.78247 67.4352 8.59221 66.8556 8.59022 66.259H10.0311C10.0311 66.5077 10.1025 66.7508 10.2363 66.9576C10.37 67.1644 10.5601 67.3256 10.7825 67.4208C11.0049 67.5159 11.2496 67.5408 11.4857 67.4923C11.7219 67.4438 11.9387 67.324 12.109 67.1482C12.2792 66.9723 12.3951 66.7483 12.4421 66.5043C12.489 66.2604 12.4649 66.0076 12.3728 65.7778C12.2807 65.548 12.1247 65.3516 11.9245 65.2135C11.7243 65.0753 11.489 65.0015 11.2483 65.0015C10.607 65.0033 9.98676 64.7648 9.50262 64.3303C9.01848 63.8957 8.70323 63.2946 8.61529 62.6383C8.52734 61.982 8.67267 61.315 9.02434 60.7609C9.37601 60.2068 9.91017 59.8033 10.5278 59.6249V58.6198H11.9687V59.6249C12.5247 59.7859 13.0148 60.1299 13.3644 60.6046C13.7141 61.0794 13.9044 61.659 13.9064 62.2555H12.4655C12.4655 61.922 12.3372 61.6022 12.109 61.3664C11.8807 61.1305 11.5711 60.9981 11.2483 60.9981C10.9255 60.9981 10.6159 61.1305 10.3876 61.3664C10.1594 61.6022 10.0311 61.922 10.0311 62.2555ZM26.0534 64.854H34.672V66.3426H26.0534V64.854ZM48.6905 0.705566H5.27293V5.42721H0.814453V76.6239H53.0097V71.9023H57.4682V11.1105L48.6905 0.705566ZM49.0831 3.4369L55.1639 10.6453H49.0831V3.4369ZM50.7054 15.3669H44.6246V8.15853L50.7054 15.3669ZM51.5688 75.1353H2.25535V6.91581H43.1837V16.8555H51.5688V75.1353ZM23.0751 64.8431H24.3705V66.3317H23.0751V64.8431ZM20.3931 64.8656H21.6884V66.3542H20.3931V64.8656ZM15.1749 16.8446H13.8796V15.356H15.1749V16.8446ZM12.4922 16.8671H11.1976V15.3785H12.4922V16.8671ZM47.5113 72.0295H46.1675V70.5409H47.5113V72.0295ZM43.3469 70.5409H44.69V72.0295H43.3469V70.5409ZM47.5113 69.2478H46.1675V67.7592H47.5113V69.2478ZM43.3469 67.7592H44.69V69.2478H43.3469V67.7592Z" fill="#d8b572"/>
</svg>
