<?xml version="1.0" encoding="UTF-8"?>
<svg id="Layer_1" data-name="Layer 1" xmlns="http://www.w3.org/2000/svg" xmlns:xlink="http://www.w3.org/1999/xlink" viewBox="0 0 1080 1080">
  <defs>
    <style>
      .cls-1 {
        fill: url(#linear-gradient-2);
      }

      .cls-2, .cls-3, .cls-4, .cls-5, .cls-6, .cls-7, .cls-8 {
        fill: #fff;
      }

      .cls-3 {
        fill-rule: evenodd;
      }

      .cls-4 {
        font-size: 31.16px;
      }

      .cls-4, .cls-5, .cls-6, .cls-7, .cls-8 {
        font-family: Ebrima-Bold, Ebrima;
        font-weight: 700;
      }

      .cls-9 {
        fill: url(#linear-gradient-6);
      }

      .cls-5 {
        font-size: 58.28px;
      }

      .cls-6 {
        font-size: 31.53px;
      }

      .cls-10 {
        fill: url(#linear-gradient-5);
      }

      .cls-11 {
        fill: url(#linear-gradient-7);
      }

      .cls-7 {
        font-size: 30.73px;
      }

      .cls-12 {
        fill: url(#linear-gradient-3);
      }

      .cls-13 {
        fill: url(#linear-gradient);
      }

      .cls-14 {
        fill: url(#linear-gradient-4);
      }

      .cls-8 {
        font-size: 28.85px;
      }

      .cls-15 {
        fill: url(#linear-gradient-8);
      }
    </style>
    <linearGradient id="linear-gradient" x1="179" y1="224.75" x2="601.5" y2="224.75" gradientUnits="userSpaceOnUse">
      <stop offset="0" stop-color="#d4b77d"/>
      <stop offset="1" stop-color="#2500fe"/>
    </linearGradient>
    <linearGradient id="linear-gradient-2" x1="561.57" y1="225.17" x2="913.63" y2="225.17" xlink:href="#linear-gradient"/>
    <linearGradient id="linear-gradient-3" x1="750.89" y1="471.25" x2="1035.83" y2="471.25" xlink:href="#linear-gradient"/>
    <linearGradient id="linear-gradient-4" x1="662.33" y1="799.15" x2="1021.51" y2="799.15" xlink:href="#linear-gradient"/>
    <linearGradient id="linear-gradient-5" x1="345.81" y1="904.02" x2="749.36" y2="904.02" xlink:href="#linear-gradient"/>
    <linearGradient id="linear-gradient-6" x1="83.9" y1="780.79" x2="430.64" y2="780.79" xlink:href="#linear-gradient"/>
    <linearGradient id="linear-gradient-7" x1="62.84" y1="453.87" x2="347.75" y2="453.87" xlink:href="#linear-gradient"/>
    <linearGradient id="linear-gradient-8" x1="340" y1="548.5" x2="755" y2="548.5" xlink:href="#linear-gradient"/>
  </defs>
  <g>
    <path class="cls-13" d="m369,384l-47.71-130.43-142.29-18.57s131.5-169.5,350.5-169.5l72,118-74,124s-88,5-158.5,76.5Z"/>
    <path class="cls-1" d="m565,308.26l71.51-119.06-74.93-122.37s214.49-4.16,352.06,166.23l-46.58,130.15-142.97,20.32s-59.17-65.33-159.09-75.26Z"/>
    <path class="cls-12" d="m750.89,411.13l137.83-17.07,50.18-134.43s135.48,166.34,86.09,379.7l-131.2,43.53-104.12-100.06s14.97-86.86-38.78-171.67Z"/>
    <path class="cls-14" d="m785.88,620.86l99.21,97.19,136.42-44.49s-45.73,209.6-243.4,303.87l-115.78-75.52,13.42-143.78s77.28-42.39,110.13-137.28Z"/>
    <path class="cls-10" d="m641.95,774.14l-13.05,138.27,120.45,77.98s-191.63,96.43-389.33,2.2l-14.22-137.5,120.15-80.1s81.59,33.35,175.99-.86Z"/>
    <path class="cls-9" d="m430.64,761.56l-116.08,76.24,14.42,142.77s-195.06-89.31-245.08-302.52l98.43-97.05,137.62,43.72s24.97,84.53,110.68,136.84Z"/>
    <path class="cls-11" d="m306.45,590.63l-131.12-45.77-104.55,98.28s-47.74-209.15,91.07-378.53l136.9,19.11,49,135.83s-51.91,71.23-41.3,171.08Z"/>
    <circle class="cls-15" cx="547.5" cy="548.5" r="207.5"/>
  </g>
  <path class="cls-2" d="m515.78,106.84h-70c-1.17-2.92-3.19-5.41-5.79-7.17-2.61-1.75-5.68-2.68-8.82-2.67h-3.93c-1.51,0-2.9.8-3.65,2.11-.75,1.31-.75,2.91,0,4.22.75,1.31,2.15,2.11,3.65,2.11h3.93c1.75,0,3.45.61,4.78,1.75,1.33,1.14,2.21,2.72,2.47,4.45l3.34,35.45v8.9c0,4.54,2.42,8.74,6.35,11.02-2.16,3.87-2.2,8.58-.1,12.48,2.1,3.91,6.05,6.47,10.47,6.8,4.42.33,8.71-1.62,11.36-5.17,2.66-3.55,3.32-8.21,1.75-12.36h15.61c-1.54,4.09-.92,8.68,1.65,12.22,2.57,3.53,6.75,5.53,11.12,5.32,4.37-.21,8.33-2.61,10.55-6.37,2.22-3.77,2.39-8.4.46-12.32.83-.77,1.31-1.85,1.33-2.98.02-1.13-.41-2.23-1.2-3.04-.79-.81-1.88-1.26-3.01-1.26h-53.56c-1.15,0-2.25-.46-3.07-1.27-.81-.81-1.27-1.92-1.27-3.07v-5.11l55.7-3.15h0c.86-.05,1.68-.36,2.36-.89.68-.53,1.18-1.25,1.43-2.07l10.12-32.47c.4-1.28.17-2.67-.63-3.76-.8-1.08-2.06-1.72-3.4-1.72h0Zm-51.79,66.48c0,1.2-.48,2.36-1.33,3.21-.85.85-2.01,1.33-3.21,1.33-1.2,0-2.36-.48-3.21-1.33-.85-.85-1.33-2.01-1.33-3.21,0-1.2.48-2.36,1.33-3.21.85-.85,2.01-1.33,3.21-1.33,1.2,0,2.36.48,3.21,1.33.85.85,1.33,2,1.33,3.21h0Zm35.35,4.54c-1.21,0-2.36-.48-3.21-1.33-.85-.85-1.33-2.01-1.33-3.21,0-1.2.48-2.36,1.33-3.21.85-.85,2.01-1.33,3.21-1.33s2.36.48,3.21,1.33c.85.85,1.33,2.01,1.33,3.21,0,1.2-.48,2.36-1.33,3.21-.85.85-2.01,1.33-3.21,1.33h0Zm3.17-38.38l-52.71,2.98-2.56-27.19h62.81l-7.55,24.21Z"/>
  <path class="cls-2" d="m975.56,468.98c-.29-.3-.68-.46-1.1-.46-3.34,0-5.38-1.38-6.24-4.22-.2-.65-.79-1.09-1.46-1.09h-3.98v-32.26c0-1.62-.65-3.17-1.79-4.32s-2.7-1.79-4.32-1.79h-67.59c-1.62,0-3.17.65-4.32,1.79-1.15,1.15-1.79,2.7-1.79,4.32v1.57l-14.31,2.18c-1.55.24-2.95,1.08-3.88,2.35-.93,1.27-1.32,2.85-1.09,4.4l12.63,82.71c.24,1.56,1.08,2.95,2.35,3.88,1.27.93,2.85,1.32,4.41,1.08l32.27-4.93h41.32c1.62,0,3.17-.64,4.32-1.79,1.15-1.14,1.79-2.7,1.79-4.32v-20.78c12.76-5.24,13.03-18.29,13.2-26.17,0-.36.02-.72.02-1.07,0-.41-.15-.81-.44-1.11h0Zm-15.85,49.12c0,.81-.33,1.58-.9,2.15-.57.57-1.35.89-2.15.89h-67.59c-.81,0-1.58-.32-2.15-.89-.57-.57-.89-1.34-.9-2.15v-87.16c0-.81.32-1.58.89-2.16.57-.57,1.35-.89,2.16-.89h67.59c.81,0,1.58.32,2.16.89.57.57.89,1.35.89,2.16v32.26h-3.98c-.67,0-1.27.44-1.46,1.09-.86,2.84-2.9,4.22-6.25,4.22-.41,0-.81.17-1.1.46-.29.3-.44.7-.43,1.11,0,.35.02.7.02,1.07,0,.39.02.8.03,1.22h-49.69c-.41-.01-.81.14-1.11.43-.3.29-.46.68-.46,1.1s.17.81.46,1.1c.3.29.7.45,1.11.43h49.81c.1,1.97.33,3.92.69,5.86h-50.5c-.41-.01-.81.14-1.11.43-.3.29-.46.68-.46,1.1s.17.81.46,1.1.7.44,1.11.43h51.25c1.59,5.92,5.9,10.73,11.6,12.97v20.78Zm9.68-40.62l-8.23,8.23c-.6.6-1.57.6-2.16,0l-4.26-4.26h0c-.6-.6-.6-1.57,0-2.17s1.57-.6,2.17,0l3.18,3.18,7.15-7.15h0c.6-.6,1.57-.6,2.16,0,.6.6.6,1.57,0,2.16h0Zm-74.06-12.5c0-.41.16-.8.45-1.08.29-.29.68-.45,1.08-.45h52.02c.83.02,1.49.7,1.49,1.53s-.66,1.51-1.49,1.53h-52.02c-.41,0-.8-.16-1.08-.45-.29-.29-.45-.68-.45-1.08h0Zm55.08,35.67c0,.41-.16.8-.45,1.08-.29.29-.68.45-1.08.45h-52.02c-.41.01-.81-.14-1.11-.43s-.46-.68-.46-1.1.17-.81.46-1.1.7-.44,1.11-.43h52.02c.84,0,1.53.69,1.53,1.53h0Zm-42.23-54.94c0-.41.16-.8.45-1.08.29-.29.68-.45,1.08-.45h14.41c.41-.01.81.14,1.11.43.3.29.46.68.46,1.1s-.17.81-.46,1.1c-.3.29-.7.44-1.11.43h-14.41c-.85,0-1.53-.69-1.53-1.53h0Zm0,5.86h0c0-.41.16-.8.45-1.08.29-.29.68-.45,1.08-.45h23.94c.41-.01.81.14,1.11.43.3.29.46.68.46,1.1s-.17.81-.46,1.1c-.3.29-.7.44-1.11.43h-23.94c-.41,0-.8-.16-1.08-.45-.29-.29-.45-.68-.45-1.08h0Zm-11.39.43v-.85c.02-.83.7-1.49,1.53-1.49s1.51.66,1.53,1.49v.85c0,.83.67,1.49,1.49,1.49s1.49-.67,1.49-1.49v-.85c0-.99-.17-1.13-1.85-1.54-1.47-.35-4.2-1.01-4.2-4.51v-.85c0-.94.29-1.85.83-2.62s1.31-1.35,2.19-1.67v-1.44c0-.85.69-1.53,1.53-1.53s1.53.69,1.53,1.53v1.43h0c.88.32,1.65.9,2.19,1.67.54.77.83,1.68.83,2.62v.85c-.02.83-.7,1.49-1.53,1.49s-1.51-.66-1.53-1.49v-.85c0-.83-.67-1.49-1.49-1.49s-1.49.67-1.49,1.49v.85c0,.99.17,1.13,1.85,1.54,1.47.35,4.2,1.01,4.2,4.51v.85c0,.94-.29,1.85-.83,2.62-.54.77-1.31,1.35-2.19,1.67v1.43c0,.85-.69,1.53-1.53,1.53s-1.53-.69-1.53-1.53v-1.42c-.88-.32-1.65-.9-2.19-1.67-.54-.77-.83-1.68-.83-2.62h0Zm53.62,39.73c0,.84-.69,1.53-1.53,1.53h-52.02c-.41.01-.81-.14-1.11-.43s-.46-.68-.46-1.1.17-.81.46-1.1.7-.44,1.11-.43h52.02c.41,0,.8.16,1.08.45.29.29.45.68.45,1.08h0Z"/>
  <path class="cls-3" d="m870.53,730.53l-20.45-20.45c-.34-.34-.81-.54-1.3-.54h-78.88c-1.01,0-1.83.82-1.83,1.83v125.79c0,1.01.82,1.83,1.83,1.83h99.34c1.01,0,1.83-.82,1.83-1.83v-105.34c0-.49-.19-.95-.54-1.3h0Zm-19.92-14.73l14.19,14.19h-14.19v-14.19Zm-78.88,119.53v-122.12h75.22v18.62c0,1.01.82,1.83,1.83,1.83h18.62v101.67h-95.67Zm20.28-20.24h-10.56c-1.01,0-1.83.82-1.83,1.83v10.56c0,1.01.82,1.83,1.83,1.83h10.56c1.01,0,1.83-.82,1.83-1.83v-10.56c0-1.01-.82-1.83-1.83-1.83Zm-1.83,10.56h-6.89v-6.89h6.89v6.89Zm69.33-2.65c0,1.01-.82,1.83-1.83,1.83h-59.47c-1.01,0-1.83-.82-1.83-1.83s.82-1.83,1.83-1.83h59.47c1.01,0,1.84.82,1.84,1.83h0Zm0-42.54c0,1.01-.82,1.83-1.83,1.83h-59.47c-1.01,0-1.83-.82-1.83-1.83s.82-1.83,1.83-1.83h59.47c1.01,0,1.84.82,1.84,1.83h0Zm-67.5-7.11h-10.56c-1.01,0-1.83.82-1.83,1.83v10.56c0,1.01.82,1.83,1.83,1.83h10.56c1.01,0,1.83-.82,1.83-1.83v-10.56c0-1.01-.82-1.83-1.83-1.83Zm-1.83,10.56h-6.89v-6.89h6.89v6.89Zm69.33,17.43c0,1.01-.82,1.83-1.83,1.83h-59.47c-1.01,0-1.83-.82-1.83-1.83s.82-1.83,1.83-1.83h59.47c1.01,0,1.84.82,1.84,1.83h0Zm-67.5-7.11h-10.56c-1.01,0-1.83.82-1.83,1.83v10.56c0,1.01.82,1.83,1.83,1.83h10.56c1.01,0,1.83-.82,1.83-1.83v-10.56c0-1.01-.82-1.83-1.83-1.83Zm-1.83,10.56h-6.89v-6.89h6.89v6.89Zm7.72-79.78c1.45,0,2.66,1.07,2.82,2.51l3.23,28.64c.41,3.66,3.53,6.45,7.21,6.45h.13c-1.01.88-1.65,2.17-1.65,3.61,0,2.63,2.14,4.78,4.78,4.78s4.78-2.14,4.78-4.78c0-1.44-.64-2.73-1.65-3.61h13.07c-1.01.88-1.65,2.17-1.65,3.61,0,2.63,2.14,4.78,4.78,4.78s4.78-2.14,4.78-4.78c0-1.44-.64-2.73-1.65-3.61h4.85c1.22,0,2.21-.99,2.21-2.21s-.99-2.21-2.21-2.21h-30.54c-1.45,0-2.66-1.07-2.82-2.51l-.14-1.28h26.8c2.5,0,4.38-1.65,4.92-4.3l3.6-16.4s.01-.06.02-.09c.21-1.29-.13-2.58-.93-3.53-.87-1.02-2.17-1.58-3.69-1.58h-33.63l-.16-1.45c-.41-3.66-3.53-6.45-7.21-6.45h-.47c-1.22,0-2.21.99-2.21,2.21s.99,2.21,2.21,2.21h.47,0Zm16.51,42.33c-.61,0-1.11-.5-1.11-1.11s.5-1.11,1.11-1.11,1.11.5,1.11,1.11c0,.61-.5,1.11-1.11,1.11Zm19.31,0c-.61,0-1.11-.5-1.11-1.11s.5-1.11,1.11-1.11,1.11.5,1.11,1.11-.5,1.11-1.11,1.11Zm-.55-27.79h5.3l-.79,3.59h-4.91l.41-3.59Zm-16.16,0h12.47l-.4,3.59h-11.66l-.4-3.59Zm.82,7.26h10.84l-.44,3.92h-9.95l-.44-3.92Zm-1.23-10.93l-.42-3.72h14.14l-.42,3.72h-13.3,0Zm-2.87,7.26h-6.79l-.4-3.59h6.79l.4,3.59Zm-6.38,3.67h6.79l.44,3.92h-6.79l-.44-3.92Zm28.97,2.55c-.27,1.37-1.04,1.37-1.32,1.37h-3.08l.44-3.92h4.52l-.55,2.52s0,.02,0,.04h0Zm3.48-16.92c.13.15.14.36.12.52l-.64,2.91h-5.69l.42-3.72h4.9c.41,0,.74.1.89.29h0Zm-27.31-.29l.42,3.72h-6.79l-.42-3.72h6.79Z"/>
  <path class="cls-2" d="m534.88,919.09l-23.6,7.84v-63.23l29.11-9.75h0c.17,0,.34-.05.49-.14l26.92-8.97v32.78h0c0,1.95,1.58,3.53,3.53,3.53s3.53-1.58,3.53-3.53v-37.66c0-.05,0-.1,0-.16-.01-.15-.04-.29-.07-.43,0-.09,0-.18-.04-.26,0-.1-.01-.2-.07-.28v-.07l-.05-.1-.09-.18-.11-.2c-.06-.12-.12-.28-.18-.37,0-.04-.03-.07-.07-.07-.05-.1-.16-.14-.22-.22s-.13-.16-.2-.23l-.16-.14-.08-.05q0-.07-.07-.07h0c-.2-.19-.44-.34-.71-.43l-.28-.09-63.59-21.19h0c-.13-.02-.26-.04-.39-.04-.22-.08-.45-.13-.68-.15h-.24c-.19.02-.39.06-.57.11-.13,0-.25,0-.39.08l-.42.14-31.09,10.41-.49.14-31.23,10.39-.35.14c-.32.1-.63.24-.92.42-.04,0-.07.03-.07.07-.3.14-.52.4-.64.71-.31.31-.53.7-.64,1.13-.09.32-.13.66-.14.99v70.65c.01,1.51.98,2.84,2.4,3.32l63.37,21.12c.06.05.13.08.21.07.73.28,1.53.28,2.26,0l.21-.07,28.05-9.33c.99-.21,1.84-.83,2.34-1.71.5-.88.6-1.93.27-2.88-.33-.96-1.04-1.73-1.97-2.12-.93-.39-1.98-.37-2.9.07h0Zm-27.21-96.62l52.53,17.49-20.58,6.88-52.53-17.48,20.58-6.89Zm-31.79,10.6l52.53,17.49-20.66,6.92-52.49-17.52,20.62-6.89Zm111.76,88.88l-12.34-9.62h0c1.34-2.58,2.05-5.44,2.07-8.35.07-5.81-2.55-11.32-7.08-14.95-4.54-3.63-10.49-4.96-16.14-3.62-5.65,1.34-10.37,5.21-12.79,10.49-2.42,5.28-2.28,11.38.39,16.54,2.67,5.16,7.56,8.8,13.27,9.87,5.71,1.07,11.59-.55,15.95-4.38l12.31,9.65c1.54,1.2,3.77.93,4.97-.61,1.2-1.54.93-3.77-.61-4.97v-.03Zm-28.92-6.39c-3.07,0-6.02-1.22-8.19-3.39-2.17-2.17-3.39-5.12-3.39-8.19,0-3.07,1.22-6.02,3.4-8.19,2.17-2.17,5.12-3.39,8.2-3.39,3.07,0,6.02,1.22,8.19,3.4,2.17,2.17,3.39,5.12,3.39,8.2,0,3.07-1.23,6.02-3.4,8.19-2.17,2.17-5.12,3.39-8.19,3.39h0Z"/>
  <g>
    <path class="cls-2" d="m247.62,620h-78.15c-2.68,0-5.24,1.07-7.13,2.96-1.89,1.89-2.96,4.46-2.96,7.13v89.72h-15.18c-.44,0-.87.18-1.18.49-.31.31-.49.74-.49,1.18v8.42c0,2.68,1.07,5.24,2.96,7.13,1.89,1.89,4.46,2.96,7.13,2.96h78.15c2.68,0,5.24-1.07,7.13-2.96,1.89-1.89,2.96-4.46,2.96-7.13v-89.78h15.18c.44,0,.87-.18,1.18-.49.31-.31.49-.74.48-1.19v-8.36c0-2.68-1.07-5.24-2.96-7.13-1.89-1.89-4.46-2.96-7.13-2.96h0Zm-10.09,10.09v99.82c.02,1.81-.68,3.55-1.95,4.84-1.27,1.29-3,2.01-4.81,2.01s-3.54-.73-4.81-2.01c-1.27-1.29-1.97-3.03-1.95-4.84v-8.42c0-.44-.18-.87-.49-1.18-.31-.31-.74-.49-1.18-.49h-59.63v-89.72c0-1.79.71-3.51,1.98-4.78,1.27-1.27,2.98-1.98,4.78-1.98h70.66c-1.68,1.85-2.61,4.26-2.6,6.76h0Zm-53.5,19.2c0-.44.18-.87.49-1.18.31-.31.74-.49,1.18-.49h23.19c.45-.01.89.16,1.21.47.32.31.5.74.5,1.19s-.18.88-.5,1.2c-.32.31-.76.48-1.21.47h-23.19c-.44,0-.87-.18-1.18-.49-.31-.31-.49-.74-.49-1.18h0Zm0,7.1h0c0-.44.17-.87.49-1.18.31-.31.74-.49,1.18-.49h43.57c.92,0,1.67.75,1.67,1.67s-.75,1.67-1.67,1.67h-43.57c-.92,0-1.66-.74-1.67-1.66h0Zm-14.71,11.06h0c0-.92.75-1.67,1.67-1.67h58.29,0c.45-.01.89.16,1.21.47.32.31.5.75.5,1.2s-.18.88-.5,1.2c-.32.31-.76.48-1.21.47h-58.29c-.92,0-1.66-.74-1.67-1.66h0Zm7.36-13.14v-2.4c0-.13,0-.25-.05-.37-.31-.15-.64-.25-.98-.31-1.16-.28-3.58-.86-3.58-3.93v-2.41c0-.76.22-1.5.63-2.14.41-.64.99-1.15,1.68-1.46v-1.01c0-.92.75-1.67,1.67-1.67s1.67.75,1.67,1.67v1.02c.69.32,1.27.83,1.68,1.46.41.64.63,1.38.63,2.14.01.45-.16.89-.47,1.21-.31.32-.75.5-1.2.5s-.88-.18-1.2-.5c-.31-.32-.48-.76-.47-1.21.02-.18-.04-.37-.16-.5s-.3-.22-.48-.22-.36.08-.48.22c-.12.14-.18.32-.16.5v2.41c0,.13,0,.25.05.37.31.15.64.25.98.31,1.16.28,3.58.86,3.58,3.93v2.41c0,.76-.22,1.5-.63,2.14-.41.64-.99,1.15-1.68,1.46v1.33c0,.92-.75,1.67-1.67,1.67s-1.67-.75-1.67-1.67v-1.33c-.69-.32-1.27-.83-1.68-1.46-.41-.64-.63-1.38-.63-2.14,0-.92.75-1.67,1.67-1.67s1.67.75,1.67,1.67c-.02.18.04.37.16.5.12.14.3.22.48.22s.36-.08.48-.22c.12-.14.18-.32.16-.5h0Zm54.26,22.89h0c0,.92-.75,1.67-1.67,1.67h-58.29c-.92,0-1.67-.75-1.67-1.67s.75-1.67,1.67-1.67h58.29c.44,0,.87.18,1.18.49.31.31.49.74.49,1.18h0Zm0,9.74h0c0,.92-.75,1.67-1.67,1.67h-58.29c-.9-.02-1.62-.76-1.62-1.67s.72-1.64,1.62-1.67h58.29c.44,0,.87.18,1.18.49s.49.74.49,1.18h0Zm0,9.75h0c0,.92-.75,1.67-1.67,1.67h-58.29c-.92,0-1.67-.75-1.67-1.67s.75-1.67,1.67-1.67h58.29c.44,0,.87.18,1.18.49s.49.74.49,1.18h0Zm0,9.75h0c0,.92-.75,1.67-1.67,1.67h-58.29c-.9-.03-1.62-.76-1.62-1.67s.72-1.64,1.62-1.67h58.29c.44,0,.87.18,1.18.49.31.31.49.74.49,1.18h0Z"/>
    <path class="cls-2" d="m247.62,620h-78.15c-2.68,0-5.24,1.07-7.13,2.96-1.89,1.89-2.96,4.46-2.96,7.13v89.72h-15.18c-.44,0-.87.18-1.18.49-.31.31-.49.74-.49,1.18v8.42c0,2.68,1.07,5.24,2.96,7.13,1.89,1.89,4.46,2.96,7.13,2.96h78.15c2.68,0,5.24-1.07,7.13-2.96,1.89-1.89,2.96-4.46,2.96-7.13v-89.78h15.18c.44,0,.87-.18,1.18-.49.31-.31.49-.74.48-1.19v-8.36c0-2.68-1.07-5.24-2.96-7.13-1.89-1.89-4.46-2.96-7.13-2.96h0Zm-10.09,10.09v99.82c.02,1.81-.68,3.55-1.95,4.84-1.27,1.29-3,2.01-4.81,2.01s-3.54-.73-4.81-2.01c-1.27-1.29-1.97-3.03-1.95-4.84v-8.42c0-.44-.18-.87-.49-1.18-.31-.31-.74-.49-1.18-.49h-59.63v-89.72c0-1.79.71-3.51,1.98-4.78,1.27-1.27,2.98-1.98,4.78-1.98h70.66c-1.68,1.85-2.61,4.26-2.6,6.76h0Zm-53.5,19.2c0-.44.18-.87.49-1.18.31-.31.74-.49,1.18-.49h23.19c.45-.01.89.16,1.21.47.32.31.5.74.5,1.19s-.18.88-.5,1.2c-.32.31-.76.48-1.21.47h-23.19c-.44,0-.87-.18-1.18-.49-.31-.31-.49-.74-.49-1.18h0Zm0,7.1h0c0-.44.17-.87.49-1.18.31-.31.74-.49,1.18-.49h43.57c.92,0,1.67.75,1.67,1.67s-.75,1.67-1.67,1.67h-43.57c-.92,0-1.66-.74-1.67-1.66h0Zm-14.71,11.06h0c0-.92.75-1.67,1.67-1.67h58.29,0c.45-.01.89.16,1.21.47.32.31.5.75.5,1.2s-.18.88-.5,1.2c-.32.31-.76.48-1.21.47h-58.29c-.92,0-1.66-.74-1.67-1.66h0Zm7.36-13.14v-2.4c0-.13,0-.25-.05-.37-.31-.15-.64-.25-.98-.31-1.16-.28-3.58-.86-3.58-3.93v-2.41c0-.76.22-1.5.63-2.14.41-.64.99-1.15,1.68-1.46v-1.01c0-.92.75-1.67,1.67-1.67s1.67.75,1.67,1.67v1.02c.69.32,1.27.83,1.68,1.46.41.64.63,1.38.63,2.14.01.45-.16.89-.47,1.21-.31.32-.75.5-1.2.5s-.88-.18-1.2-.5c-.31-.32-.48-.76-.47-1.21.02-.18-.04-.37-.16-.5s-.3-.22-.48-.22-.36.08-.48.22c-.12.14-.18.32-.16.5v2.41c0,.13,0,.25.05.37.31.15.64.25.98.31,1.16.28,3.58.86,3.58,3.93v2.41c0,.76-.22,1.5-.63,2.14-.41.64-.99,1.15-1.68,1.46v1.33c0,.92-.75,1.67-1.67,1.67s-1.67-.75-1.67-1.67v-1.33c-.69-.32-1.27-.83-1.68-1.46-.41-.64-.63-1.38-.63-2.14,0-.92.75-1.67,1.67-1.67s1.67.75,1.67,1.67c-.02.18.04.37.16.5.12.14.3.22.48.22s.36-.08.48-.22c.12-.14.18-.32.16-.5h0Zm54.26,22.89h0c0,.92-.75,1.67-1.67,1.67h-58.29c-.92,0-1.67-.75-1.67-1.67s.75-1.67,1.67-1.67h58.29c.44,0,.87.18,1.18.49.31.31.49.74.49,1.18h0Zm0,9.74h0c0,.92-.75,1.67-1.67,1.67h-58.29c-.9-.02-1.62-.76-1.62-1.67s.72-1.64,1.62-1.67h58.29c.44,0,.87.18,1.18.49s.49.74.49,1.18h0Zm0,9.75h0c0,.92-.75,1.67-1.67,1.67h-58.29c-.92,0-1.67-.75-1.67-1.67s.75-1.67,1.67-1.67h58.29c.44,0,.87.18,1.18.49s.49.74.49,1.18h0Zm0,9.75h0c0,.92-.75,1.67-1.67,1.67h-58.29c-.9-.03-1.62-.76-1.62-1.67s.72-1.64,1.62-1.67h58.29c.44,0,.87.18,1.18.49.31.31.49.74.49,1.18h0Z"/>
  </g>
  <path class="cls-2" d="m239.64,373.89c-.87,1.3-2.05,2.37-3.41,3.14l-5.32,2.98c-5.84,3.29-12.94-1.54-12.01-8.2l.85-6.02c.2-1.56.77-3.02,1.66-4.32l10.83-15.9h-52.54c-3.37,0-6.09,2.72-6.09,6.09v36.82c0,3.39,2.76,6.09,6.11,6.09.73,0,1.4.39,1.77,1.01l1.14,1.91c2.35,4,8.11,4,10.47,0l1.14-1.91c.36-.63,1.03-1.01,1.75-1.01h44.59c3.37,0,6.09-2.72,6.09-6.09v-24.87l-7.02,10.28Zm-37.61,6.17h-14.2c-1.12,0-2.03-.91-2.03-2.03s.91-2.03,2.03-2.03h14.2c1.12,0,2.03.91,2.03,2.03s-.91,2.03-2.03,2.03Zm0-8.11h-14.2c-1.12,0-2.03-.91-2.03-2.03s.91-2.03,2.03-2.03h14.2c1.12,0,2.03.91,2.03,2.03s-.91,2.03-2.03,2.03Zm0-8.11h-14.2c-1.12,0-2.03-.91-2.03-2.03s.91-2.03,2.03-2.03h14.2c1.12,0,2.03.91,2.03,2.03s-.91,2.03-2.03,2.03Zm47.69-22.74l-1.46-.99c-2.78-1.89-6.55-1.18-8.46,1.6l-15.03,22.07c-.53.77-.87,1.64-.99,2.58l-.85,6.04c-.47,3.33,3.08,5.74,6,4.1l5.32-3c.81-.45,1.52-1.1,2.05-1.87l15.03-22.07c1.91-2.78,1.18-6.55-1.6-8.46h0Zm19.25,22.74c-1.12,0-2.03.91-2.03,2.03,0,31.36-25.44,56.8-56.8,56.8-17.12,0-32.48-7.57-42.88-19.56l-.59-.73h2.9c1.12,0,2.03-.91,2.03-2.03s-.91-2.03-2.03-2.03h-7.1c-1.12,0-2.03.91-2.03,2.03v7.1c0,1.12.91,2.03,2.03,2.03s2.03-.91,2.03-2.03v-1.32c11.16,12.62,27.47,20.59,45.64,20.59,33.61,0,60.86-27.24,60.86-60.86,0-1.12-.91-2.03-2.03-2.03h0Zm-11.16-42.6c-1.12,0-2.03.91-2.03,2.03v2.35c-11.16-12.64-27.47-20.61-45.64-20.61-33.61,0-60.86,27.24-60.86,60.86,0,1.12.91,2.03,2.03,2.03s2.03-.91,2.03-2.03c0-31.36,25.44-56.8,56.8-56.8,17.47,0,33.08,7.89,43.51,20.29h-1.93c-1.12,0-2.03.91-2.03,2.03s.91,2.03,2.03,2.03h6.09c1.12,0,2.03-.89,2.03-2.03v-8.11c0-1.12-.91-2.03-2.03-2.03h0Z"/>
  <path class="cls-2" d="m765.57,137h-89.55c-7.41,0-13.43,6.03-13.43,13.43v56.14c0,7.41,6.03,13.43,14.76,13.43h89.55c6.08,0,12.11-6.03,12.11-13.43v-56.14c0-7.41-6.03-13.43-13.43-13.43h0Zm-57.99,69.89h-34.39c-.79,0-1.43-.64-1.43-1.43,0-13.09,6.6-23.63,15.52-25.63-5.81-1.4-10.14-6.64-10.14-12.88,0-7.3,5.94-13.25,13.25-13.25s13.25,5.94,13.25,13.25c0,6.23-4.33,11.48-10.14,12.88,8.92,2.01,15.52,12.55,15.52,25.63,0,.79-.64,1.43-1.44,1.43h0Zm58.83,1.15h-44.54c-.9,0-1.62-.73-1.62-1.62s.73-1.62,1.62-1.62h44.54c.9,0,1.62.73,1.62,1.62,0,.9-.73,1.62-1.62,1.62Zm0-13.96h-44.54c-.9,0-1.62-.73-1.62-1.62s.73-1.62,1.62-1.62h44.54c.9,0,1.62.73,1.62,1.62,0,.9-.73,1.62-1.62,1.62Zm0-13.96h-44.54c-.9,0-1.62-.73-1.62-1.62s.73-1.62,1.62-1.62h44.54c.9,0,1.62.73,1.62,1.62,0,.9-.73,1.62-1.62,1.62Zm1.62-18.57c0,.9-.73,1.62-1.62,1.62h-44.54c-.9,0-1.62-.73-1.62-1.62v-8.48c0-.9.73-1.62,1.62-1.62h44.54c.9,0,1.62.73,1.62,1.62v8.47Z"/>
  <text class="cls-7" transform="translate(411.32 231.31)"><tspan x="0" y="0">Plan </tspan><tspan x="-54.85" y="36.88">for Purchase</tspan></text>
  <text class="cls-4" transform="translate(712.83 281.12)"><tspan x="0" y="0">Identify </tspan><tspan x="4.94" y="37.39">Sources</tspan></text>
  <text class="cls-7" transform="translate(859.34 571.77)"><tspan x="0" y="0">Contract </tspan><tspan x="-29.16" y="36.88">management</tspan></text>
  <text class="cls-7" transform="translate(714.51 884.77)"><tspan x="0" y="0">Purchase </tspan><tspan x="29.61" y="36.88">order</tspan></text>
  <text class="cls-7" transform="translate(472.85 970.35)"><tspan x="0" y="0">Track </tspan><tspan x="4.14" y="36.88">order</tspan></text>
  <text class="cls-6" transform="translate(132.55 481.45)"><tspan x="0" y="0">Source </tspan><tspan x="-12.77" y="37.84">feedback</tspan></text>
  <text class="cls-8" transform="translate(177.77 775.17) scale(1.02 1)"><tspan x="0" y="0">Invoicing /</tspan><tspan x="-22.2" y="34.62">3 - way match</tspan></text>
  <text class="cls-5" transform="translate(418.2 524.99)"><tspan x="0" y="0">Sourcing </tspan><tspan x="-48.36" y="69.93">Procurement</tspan></text>
</svg>